<?xml version="1.0" encoding="UTF-8"?>
<svg version="1.1" xmlns="http://www.w3.org/2000/svg" width="1024" height="1024">
<path d="M0 0 C1.29599121 0.01885254 1.29599121 0.01885254 2.61816406 0.03808594 C37.94086382 0.65645403 73.06387104 6.29845451 106.65576172 17.2421875 C109.77712542 18.25121822 112.9191904 19.18692445 116.0625 20.125 C125.61883565 23.08381275 134.98880194 26.3642302 144.04296875 30.6328125 C146.88852236 31.94845816 149.7649382 33.17126338 152.65405273 34.38745117 C161.21273713 38.01787883 169.21361782 42.33072738 177.24560547 46.99804688 C179.58809241 48.33586575 181.98096883 49.5697968 184.375 50.8125 C191.20082412 54.49594777 197.54682504 58.94677509 203.9609375 63.29296875 C206.11407202 64.74949374 208.25510287 66.15218067 210.48828125 67.484375 C214.38391593 69.83508457 218.08607631 72.45431578 221.8125 75.0625 C222.60076172 75.60455078 223.38902344 76.14660156 224.20117188 76.70507812 C224.94560547 77.22650391 225.69003906 77.74792969 226.45703125 78.28515625 C227.4776062 78.99490601 227.4776062 78.99490601 228.51879883 79.71899414 C229.00759521 80.14172607 229.4963916 80.56445801 230 81 C230 81.66 230 82.32 230 83 C230.72960937 83.24621094 231.45921875 83.49242187 232.2109375 83.74609375 C235.3015674 85.13557862 237.1714487 86.73613948 239.625 89.0625 C243.17225984 92.35676062 246.77865081 95.48035037 250.5625 98.5 C255.73252259 102.68281884 260.38170776 107.2248601 265 112 C267.65188408 114.66938827 270.32248223 117.31769011 273.015625 119.9453125 C278.98144737 125.79291811 284.63509543 131.6871964 289.8046875 138.26953125 C291.61733263 140.52404894 293.47566753 142.69305643 295.390625 144.859375 C304.77096743 155.52748482 312.9282198 167.1615797 320.9375 178.875 C321.64696777 179.90810303 322.35643555 180.94120605 323.08740234 182.00561523 C326.95078079 187.71024203 330.47269194 193.47542717 333.7019043 199.56152344 C334.78644176 201.59883023 335.90845878 203.59231497 337.08984375 205.57421875 C341.81692896 213.53930736 345.64145 221.66913119 349.23144531 230.20019531 C350.28984852 232.67876852 351.42443633 235.11964997 352.5625 237.5625 C372.4965785 281.33929984 383.57308964 331.21991571 382.9609375 379.36328125 C382.9482785 380.49984161 382.93561951 381.63640198 382.9225769 382.80740356 C382.84853938 388.4464198 382.71615002 394.07650667 382.50146484 399.71191406 C382.45333196 401.77797701 382.40593328 403.84405722 382.359375 405.91015625 C382.30534515 406.85740067 382.25131531 407.80464508 382.19564819 408.78059387 C382.15569875 411.41748382 382.19677862 413.48607478 383 416 C385.40392676 418.3076645 388.01109168 419.58872424 391 421 C402.24610091 429.5515545 410.19359616 440.95090204 412.32128906 455.14306641 C412.56743882 457.09296704 412.78595498 459.04631453 413 461 C413.54188965 461.13986328 414.0837793 461.27972656 414.64208984 461.42382812 C433.77892195 466.43671908 450.38256763 472.69028119 466 485 C466.69351563 485.51046875 467.38703125 486.0209375 468.1015625 486.546875 C481.9542541 497.30010593 489.72512267 515.39758754 492.25 532.3125 C495.37055494 560.00391092 489.62197106 588.27611818 472.828125 610.9296875 C468.2979653 616.56895526 463.56534814 622.34219064 458 627 C457.34 627 456.68 627 456 627 C456 627.66 456 628.32 456 629 C454.3214487 630.49629179 452.58041102 631.92292661 450.8125 633.3125 C447.7833166 635.70097259 444.96472235 638.0359822 442.26171875 640.79296875 C440 643 440 643 438 643 C438 643.66 438 644.32 438 645 C436.28515625 646.65625 436.28515625 646.65625 434.0625 648.5 C431.07954821 650.88926999 431.07954821 650.88926999 429 654 C428.34 654 427.68 654 427 654 C426.75507812 654.54914062 426.51015625 655.09828125 426.2578125 655.6640625 C424.73413647 658.49374655 422.86180063 660.84823265 420.875 663.375 C415.89928117 669.86624781 411.87213606 676.80943196 408 684 C407.48324707 684.9590625 407.48324707 684.9590625 406.95605469 685.9375 C404.1466066 691.16727594 401.36293524 696.41080269 398.59765625 701.6640625 C395.87577742 706.72519183 392.93024003 711.77009358 389 716 C388.34 716 387.68 716 387 716 C386.77183594 716.55171875 386.54367187 717.1034375 386.30859375 717.671875 C381.44957929 726.31656938 371.27778711 733.90485414 363 739 C362.34 739 361.68 739 361 739 C361 739.66 361 740.32 361 741 C358.88160856 742.45851404 356.782304 743.77345737 354.5625 745.0625 C353.88437256 745.45953125 353.20624512 745.8565625 352.50756836 746.265625 C350.34459782 747.52155935 348.17302184 748.76155343 346 750 C345.34257813 750.38140137 344.68515625 750.76280273 344.0078125 751.15576172 C316.30428532 767.12840277 284.87590893 774.2073681 253.765625 780.2109375 C229.91112052 784.82045018 207.14500001 790.58517886 185.46875 801.72265625 C171.61234612 808.83167665 157.57536163 815.5017051 143 821 C141.80375 821.47695313 140.6075 821.95390625 139.375 822.4453125 C113.30220213 832.7445075 85.80020472 838.84026137 58 842 C57.19643066 842.0913623 56.39286133 842.18272461 55.56494141 842.27685547 C22.89469649 845.77096451 -10.64918576 844.52417552 -43 839 C-44.12970215 838.80841309 -45.2594043 838.61682617 -46.42333984 838.41943359 C-61.50051627 835.75618507 -75.96159664 831.65790856 -90.5 826.9375 C-91.68023239 826.55440674 -91.68023239 826.55440674 -92.88430786 826.16357422 C-101.24582049 823.4304221 -109.45820887 820.52854477 -117.54589844 817.05200195 C-120.45320772 815.80572303 -123.40340709 814.70779961 -126.375 813.625 C-132.85393271 811.15206611 -138.97141281 808.13586797 -145.13037109 804.95898438 C-149.13408731 802.9053676 -153.16619877 800.90721499 -157.19873047 798.91088867 C-160.09991371 797.47075553 -162.96981452 796.01679778 -165.80078125 794.44140625 C-181.07489909 786.09155516 -198.90532115 781.79200253 -215.89013672 778.42675781 C-217.96625082 778.00682638 -220.03156303 777.55249052 -222.09765625 777.0859375 C-232.02795076 774.87073546 -242.0208348 773.12730116 -252.05349731 771.45144653 C-281.01378708 766.59941497 -310.14379939 760.53846902 -336 746 C-337.03511719 745.44957031 -338.07023438 744.89914062 -339.13671875 744.33203125 C-357.88295637 734.01547434 -372.30475627 718.95765648 -385 702 C-385.49532227 701.33887207 -385.99064453 700.67774414 -386.50097656 699.99658203 C-388.04319909 697.93587898 -389.58413621 695.87421915 -391.125 693.8125 C-407.74089035 671.58653042 -425.3368487 656.15931011 -449.1875 642.1875 C-461.4029461 635.03009703 -473.31703044 627.84019669 -484.42578125 619.03125 C-487.01701636 616.93091024 -487.01701636 616.93091024 -490 615 C-490 614.34 -490 613.68 -490 613 C-490.66 613 -491.32 613 -492 613 C-492 612.34 -492 611.68 -492 611 C-492.66 611 -493.32 611 -494 611 C-496.90656619 607.8643126 -499.42926298 604.41320702 -502 601 C-502.54398437 600.28199219 -503.08796875 599.56398438 -503.6484375 598.82421875 C-517.00339719 580.06368013 -519.35470677 557.24686286 -516 535 C-510.77960348 510.87409972 -493.81347255 489.51679049 -473.484375 476.09375 C-451.37041734 462.48516067 -425.14164239 454.06636991 -399 455 C-399.12552246 454.36255859 -399.25104492 453.72511719 -399.38037109 453.06835938 C-403.59626328 430.89618369 -404.30681872 408.57141311 -404.375 386.0625 C-404.38651093 384.47646973 -404.38651093 384.47646973 -404.39825439 382.85839844 C-404.49004743 367.02701584 -403.1760965 351.6725712 -401 336 C-400.66157393 333.43473097 -400.32665386 330.86903191 -399.99305725 328.3031311 C-391.85825073 268.65113313 -366.32880148 212.32241943 -331 164 C-330.5982959 163.44521973 -330.1965918 162.89043945 -329.78271484 162.31884766 C-323.90260256 154.2089527 -317.54269538 146.57469786 -311 139 C-310.39542969 138.29359375 -309.79085937 137.5871875 -309.16796875 136.859375 C-279.09660767 102.03220256 -279.09660767 102.03220256 -270 99 C-270 98.34 -270 97.68 -270 97 C-267.8901882 95.19030368 -265.77284382 93.49149494 -263.5625 91.8125 C-262.91651855 91.31419678 -262.27053711 90.81589355 -261.60498047 90.30249023 C-260.31517636 89.30796386 -259.02353987 88.31580889 -257.72998047 87.32617188 C-255.68120145 85.75561477 -253.65307889 84.15966155 -251.625 82.5625 C-250.08516419 81.37262688 -248.54314078 80.18558377 -247 79 C-246.37738281 78.51789063 -245.75476563 78.03578125 -245.11328125 77.5390625 C-242.95632604 75.87250561 -240.79138149 74.21677953 -238.625 72.5625 C-237.92197754 72.01730713 -237.21895508 71.47211426 -236.49462891 70.91040039 C-235.82866699 70.40500732 -235.16270508 69.89961426 -234.4765625 69.37890625 C-233.87924316 68.9207251 -233.28192383 68.46254395 -232.66650391 67.99047852 C-231 67 -231 67 -228 67 C-228 66.34 -228 65.68 -228 65 C-227.51273437 64.74347656 -227.02546875 64.48695313 -226.5234375 64.22265625 C-222.24840946 61.91414111 -218.12814267 59.46098382 -214.07128906 56.78466797 C-207.21920313 52.26670459 -200.23780396 48.43251006 -192.82275391 44.88574219 C-190.94450615 43.97303353 -189.0865843 43.02717125 -187.23046875 42.0703125 C-177.71967654 37.1822577 -168.01905272 32.93124912 -158.12695312 28.87548828 C-155.24233319 27.68813209 -152.37235994 26.46666023 -149.5 25.25 C-139.71906072 21.20828955 -129.89710471 18.02922647 -119.6875 15.28125 C-116.7746924 14.49593423 -113.88246955 13.67125554 -111 12.78125 C-89.17850437 6.15287761 -65.74593626 2.29448418 -43 1 C-42.04335449 0.94505371 -41.08670898 0.89010742 -40.10107422 0.83349609 C-26.73722921 0.10643086 -13.38164029 -0.24869003 0 0 Z " fill="#429CCE" transform="translate(521,93)"/>
<path d="M0 0 C1.29599121 0.01885254 1.29599121 0.01885254 2.61816406 0.03808594 C37.94086382 0.65645403 73.06387104 6.29845451 106.65576172 17.2421875 C109.77712542 18.25121822 112.9191904 19.18692445 116.0625 20.125 C125.61883565 23.08381275 134.98880194 26.3642302 144.04296875 30.6328125 C146.88852236 31.94845816 149.7649382 33.17126338 152.65405273 34.38745117 C161.21273713 38.01787883 169.21361782 42.33072738 177.24560547 46.99804688 C179.58809241 48.33586575 181.98096883 49.5697968 184.375 50.8125 C191.20082412 54.49594777 197.54682504 58.94677509 203.9609375 63.29296875 C206.11407202 64.74949374 208.25510287 66.15218067 210.48828125 67.484375 C214.38391593 69.83508457 218.08607631 72.45431578 221.8125 75.0625 C222.60076172 75.60455078 223.38902344 76.14660156 224.20117188 76.70507812 C224.94560547 77.22650391 225.69003906 77.74792969 226.45703125 78.28515625 C227.4776062 78.99490601 227.4776062 78.99490601 228.51879883 79.71899414 C229.00759521 80.14172607 229.4963916 80.56445801 230 81 C230 81.66 230 82.32 230 83 C230.72960937 83.24621094 231.45921875 83.49242187 232.2109375 83.74609375 C235.3015674 85.13557862 237.1714487 86.73613948 239.625 89.0625 C243.17225984 92.35676062 246.77865081 95.48035037 250.5625 98.5 C255.73252259 102.68281884 260.38170776 107.2248601 265 112 C267.65188408 114.66938827 270.32248223 117.31769011 273.015625 119.9453125 C278.98144737 125.79291811 284.63509543 131.6871964 289.8046875 138.26953125 C291.61733263 140.52404894 293.47566753 142.69305643 295.390625 144.859375 C304.77096743 155.52748482 312.9282198 167.1615797 320.9375 178.875 C321.64696777 179.90810303 322.35643555 180.94120605 323.08740234 182.00561523 C326.95078079 187.71024203 330.47269194 193.47542717 333.7019043 199.56152344 C334.78644176 201.59883023 335.90845878 203.59231497 337.08984375 205.57421875 C341.81692896 213.53930736 345.64145 221.66913119 349.23144531 230.20019531 C350.28984852 232.67876852 351.42443633 235.11964997 352.5625 237.5625 C376.19758565 289.46700181 383.86151905 345.46197899 383.23828125 402.00390625 C383.23070297 402.84175659 383.22312469 403.67960693 383.21531677 404.54284668 C383.15137946 408.48389084 382.96321584 412.152469 382 416 C381.34588135 415.78778809 380.6917627 415.57557617 380.01782227 415.35693359 C372.86429897 413.19969231 366.38543043 412.53922729 358.9375 412.625 C357.92623047 412.61339844 356.91496094 412.60179687 355.87304688 412.58984375 C347.03101864 412.62400484 339.16481587 414.19054935 331.625 419 C330.83351563 419.495 330.04203125 419.99 329.2265625 420.5 C326.99258042 421.90424126 326.99258042 421.90424126 325.328125 423.65625 C321.47057286 425.8827566 317.5009144 425.5292239 313.125 425.5 C312.08835205 425.49355469 311.0517041 425.48710938 309.98364258 425.48046875 C278.26677146 424.78685471 222.34773109 421.26402299 198.0625 398.75 C197.20011719 397.95335937 196.33773437 397.15671875 195.44921875 396.3359375 C192.81503537 393.82359035 190.24634114 391.2564261 187.6875 388.66796875 C172.71960057 373.87330889 154.29388227 359.33390173 132.4375 358.5625 C119.5174275 359.20660919 108.99664334 363.47444045 97.46875 368.94140625 C87.63094629 373.52030123 79.72381263 373.48693001 69.15234375 371.828125 C68.3373793 371.70443542 67.52241486 371.58074585 66.68275452 371.45330811 C64.96710589 371.19096793 63.25197286 370.92523525 61.53735352 370.65625 C58.96975653 370.25504037 56.40020956 369.86897021 53.83007812 369.484375 C26.63147572 365.3328465 26.63147572 365.3328465 16.0625 359.25 C8.32797148 355.16666282 0.57505089 354.25012139 -8 356 C-11.16342412 357.33984832 -14.00831762 358.93264027 -16.98046875 360.6484375 C-25.86250328 364.6240959 -36.17377362 362.22637428 -45.0234375 359.22265625 C-47.81437816 358.07624624 -50.32188941 356.74524319 -52.9375 355.25 C-59.53614676 351.77306215 -67.26732037 351.61576854 -74.390625 353.69921875 C-78.75851796 355.73699559 -82.56152613 358.76056339 -86.3359375 361.73046875 C-89.88565248 364.43858463 -93.01209771 364.62123408 -97.39453125 364.6328125 C-103.09361734 363.63253954 -107.95582979 360.95332724 -113.00952148 358.20166016 C-118.56745579 355.27582171 -122.74528117 354.37982608 -129 355 C-130.27037109 355.11214844 -130.27037109 355.11214844 -131.56640625 355.2265625 C-137.60271024 356.43146075 -141.36459155 359.05408779 -146 363 C-147.91421701 364.58629404 -149.83099908 366.16949659 -151.75 367.75 C-152.65234375 368.50796875 -153.5546875 369.2659375 -154.484375 370.046875 C-159.56191038 373.98906086 -162.55265868 374.29903178 -168.86328125 373.625 C-172.33951976 372.93234974 -175.35060431 371.78871604 -178.625 370.4375 C-184.99899827 367.86381947 -189.85055417 366.25465208 -196.38671875 369.00390625 C-201.18863324 371.64985913 -204.69490055 374.71692495 -208.4375 378.6875 C-217.67031775 387.28003913 -230.37492078 390.67245297 -242 395 C-247.3728132 397.01033337 -252.74404448 399.02490694 -258.11444092 401.04168701 C-259.70802356 401.64010104 -261.30181528 402.23795859 -262.89581299 402.83526611 C-277.535682 408.32965337 -291.82810566 414.37908537 -306 421 C-307.0504248 421.48678223 -308.10084961 421.97356445 -309.18310547 422.47509766 C-320.76751316 427.86009954 -332.18392769 433.5153372 -343.4375 439.5625 C-344.44731934 440.0975415 -345.45713867 440.63258301 -346.49755859 441.18383789 C-351.021303 443.62737169 -355.26018864 446.07656818 -359.2734375 449.30078125 C-373.74819342 460.56144651 -390.67328907 457.57660064 -408 456 C-408 455.67 -408 455.34 -408 455 C-405.03 455 -402.06 455 -399 455 C-399.12552246 454.36255859 -399.25104492 453.72511719 -399.38037109 453.06835938 C-403.59626328 430.89618369 -404.30681872 408.57141311 -404.375 386.0625 C-404.38267395 385.00514648 -404.3903479 383.94779297 -404.39825439 382.85839844 C-404.49004743 367.02701584 -403.1760965 351.6725712 -401 336 C-400.66157393 333.43473097 -400.32665386 330.86903191 -399.99305725 328.3031311 C-391.85825073 268.65113313 -366.32880148 212.32241943 -331 164 C-330.5982959 163.44521973 -330.1965918 162.89043945 -329.78271484 162.31884766 C-323.90260256 154.2089527 -317.54269538 146.57469786 -311 139 C-310.39542969 138.29359375 -309.79085937 137.5871875 -309.16796875 136.859375 C-279.09660767 102.03220256 -279.09660767 102.03220256 -270 99 C-270 98.34 -270 97.68 -270 97 C-267.8901882 95.19030368 -265.77284382 93.49149494 -263.5625 91.8125 C-262.91651855 91.31419678 -262.27053711 90.81589355 -261.60498047 90.30249023 C-260.31517636 89.30796386 -259.02353987 88.31580889 -257.72998047 87.32617188 C-255.68120145 85.75561477 -253.65307889 84.15966155 -251.625 82.5625 C-250.08516419 81.37262688 -248.54314078 80.18558377 -247 79 C-246.37738281 78.51789063 -245.75476563 78.03578125 -245.11328125 77.5390625 C-242.95632604 75.87250561 -240.79138149 74.21677953 -238.625 72.5625 C-237.92197754 72.01730713 -237.21895508 71.47211426 -236.49462891 70.91040039 C-235.82866699 70.40500732 -235.16270508 69.89961426 -234.4765625 69.37890625 C-233.87924316 68.9207251 -233.28192383 68.46254395 -232.66650391 67.99047852 C-231 67 -231 67 -228 67 C-228 66.34 -228 65.68 -228 65 C-227.26910156 64.61521484 -227.26910156 64.61521484 -226.5234375 64.22265625 C-222.24840946 61.91414111 -218.12814267 59.46098382 -214.07128906 56.78466797 C-207.21920313 52.26670459 -200.23780396 48.43251006 -192.82275391 44.88574219 C-190.94450615 43.97303353 -189.0865843 43.02717125 -187.23046875 42.0703125 C-177.71967654 37.1822577 -168.01905272 32.93124912 -158.12695312 28.87548828 C-155.24233319 27.68813209 -152.37235994 26.46666023 -149.5 25.25 C-139.71906072 21.20828955 -129.89710471 18.02922647 -119.6875 15.28125 C-116.7746924 14.49593423 -113.88246955 13.67125554 -111 12.78125 C-89.17850437 6.15287761 -65.74593626 2.29448418 -43 1 C-42.04335449 0.94505371 -41.08670898 0.89010742 -40.10107422 0.83349609 C-26.73722921 0.10643086 -13.38164029 -0.24869003 0 0 Z " fill="#8ACAE9" transform="translate(521,93)"/>
<path d="M0 0 C1.8425419 0.92641771 3.65899789 1.8927849 5.47753906 2.86523438 C13.90653993 6.94140328 22.7661375 7.74005016 32.04785156 6.59179688 C35.10929197 5.30599519 35.10929197 5.30599519 37.92285156 3.59179688 C45.24459497 -0.51073495 52.8621222 -1.15717796 61.04785156 0.59179688 C64.37778664 1.85957735 67.40044424 3.62688914 70.49121094 5.38427734 C80.21254766 10.67054489 91.2424401 11.88129357 102.04785156 13.59179688 C103.27439453 13.78789551 104.5009375 13.98399414 105.76464844 14.18603516 C126.33504854 18.38486671 126.33504854 18.38486671 146.42285156 14.90429688 C147.06859131 14.63319092 147.71433105 14.36208496 148.37963867 14.08276367 C152.18153882 12.471022 155.89420035 10.70473646 159.61035156 8.90429688 C174.67044683 1.96725448 189.66355062 2.12760542 205.04785156 7.59179688 C218.0684019 13.56631374 229.03021932 23.54659605 239.36035156 33.27929688 C240.04798584 33.92511719 240.73562012 34.5709375 241.4440918 35.23632812 C244.15842276 37.79999114 246.83101345 40.36158708 249.39160156 43.08007812 C266.47385595 60.53515949 303.06941573 63.23137566 326.04785156 66.59179688 C327.04880859 66.74132812 328.04976562 66.89085937 329.08105469 67.04492188 C355.90574507 72.33088423 355.90574507 72.33088423 380.98535156 66.34179688 C382.34280249 65.09536423 383.69719739 63.84559138 385.04785156 62.59179688 C397.32279392 55.83458105 414.39941938 55.12012133 427.83300781 58.65039062 C436.01841578 61.30145432 442.88719072 65.5797234 449.04785156 71.59179688 C449.69109375 72.20796875 450.33433594 72.82414063 450.99707031 73.45898438 C460.41728913 83.30832379 464.00780035 95.24139434 464.04785156 108.59179688 C463.0889604 117.63005811 460.74923463 124.52735821 455.04785156 131.59179688 C454.32597656 132.62304688 453.60410156 133.65429688 452.86035156 134.71679688 C448.0606363 140.27273737 440.99190754 143.9754358 434.17285156 146.40429688 C429.44849746 148.3741689 428.36830572 151.25577157 426.40332031 155.80273438 C419.92271631 169.13746423 408.19431863 176.37462571 394.77441406 181.31054688 C380.94040116 186.06689513 367.08335884 187.56409516 352.54785156 187.96679688 C323.18609918 188.85100333 294.03506378 193.07110688 265.04785156 197.59179688 C262.042107 198.05099533 259.03583441 198.50638787 256.02905273 198.95874023 C254.42464074 199.20034907 252.82058216 199.44432777 251.21704102 199.69165039 C243.39270145 200.88543916 235.64731716 201.74550229 227.72753906 201.83007812 C226.95852768 201.83973602 226.1895163 201.84939392 225.39720154 201.85934448 C222.90570158 201.88411595 220.41446149 201.89675043 217.92285156 201.90429688 C216.63645279 201.90872299 216.63645279 201.90872299 215.32406616 201.91323853 C196.70827119 201.92770603 178.85195942 199.75944196 160.49707031 196.65820312 C145.01821754 194.07988727 129.64244655 193.6165877 114.04785156 195.59179688 C114.28797974 196.51532959 114.28797974 196.51532959 114.53295898 197.45751953 C115.77330726 202.59887784 115.81217574 207.11976512 113.36035156 211.84179688 C106.02971367 220.55931221 99.58037162 223.36468993 88.34143066 224.42767334 C80.76617375 224.96974226 73.16082898 224.92347695 65.5703125 224.9074707 C62.42185271 224.90429587 59.27432192 224.92790101 56.12597656 224.953125 C26.80434384 225.04581964 26.80434384 225.04581964 15.78613281 214.40820312 C8.04785156 205.94749705 8.04785156 205.94749705 8.04785156 200.59179688 C7.30889648 200.65238281 6.56994141 200.71296875 5.80859375 200.77539062 C-34.7384274 203.97874082 -74.4255557 203.52453947 -114.55224609 196.77832031 C-125.32259671 194.97195595 -136.05973532 193.45603759 -146.95214844 192.59179688 C-147.20738281 193.34332031 -147.46261719 194.09484375 -147.72558594 194.86914062 C-150.82720561 201.75394608 -158.20426411 205.80885567 -164.95214844 208.59179688 C-168.44296245 209.75540155 -171.74976764 209.90334667 -175.38964844 210.09179688 C-180.18358656 210.27176804 -180.18358656 210.27176804 -184.88990784 211.09831238 C-187.15693257 211.64080076 -189.18446857 211.73964947 -191.5144043 211.76879883 C-192.86247414 211.78805168 -192.86247414 211.78805168 -194.23777771 211.80769348 C-195.20441849 211.81508041 -196.17105927 211.82246735 -197.16699219 211.83007812 C-198.17371475 211.83814987 -199.18043732 211.84622162 -200.21766663 211.85453796 C-202.35188077 211.8683651 -204.4861169 211.87909338 -206.62036133 211.88696289 C-208.78383958 211.8984338 -210.94729063 211.91880709 -213.1105957 211.94848633 C-242.80616599 212.35564888 -242.80616599 212.35564888 -252.68261719 203.15429688 C-255.3915048 199.82028135 -256.2029629 197.11948861 -256.07714844 192.84179688 C-256.05910156 192.04257812 -256.04105469 191.24335937 -256.02246094 190.41992188 C-255.99925781 189.81664062 -255.97605469 189.21335937 -255.95214844 188.59179688 C-267.97438894 188.8846651 -279.65124206 190.16139153 -291.53295898 192.00219727 C-308.89443405 194.68901975 -326.36934739 197.13951745 -343.95214844 197.59179688 C-344.96519043 197.61902832 -345.97823242 197.64625977 -347.02197266 197.67431641 C-350.45706665 197.75359931 -353.89137737 197.80242187 -357.32714844 197.84179688 C-358.40923584 197.86330811 -359.49132324 197.88481934 -360.60620117 197.90698242 C-370.87447929 197.9487394 -380.06055467 196.49694142 -387.95214844 189.59179688 C-391.87078001 184.06671208 -391.99348025 179.16662912 -390.95214844 172.59179688 C-372.26409129 120.83577568 -303.30430781 88.67390476 -257.45678711 67.04199219 C-239.68975727 58.78420831 -221.5745796 51.4658075 -203.26074219 44.52148438 C-202.32545685 44.16662964 -201.39017151 43.8117749 -200.42654419 43.44616699 C-195.75250888 41.67465009 -191.07561374 39.91133508 -186.39355469 38.16113281 C-170.16350888 32.49637402 -170.16350888 32.49637402 -156.38964844 22.59179688 C-150.89240994 17.41155806 -145.54058308 12.53686485 -137.70214844 11.96679688 C-132.49757052 12.24788035 -128.0011233 14.45174064 -123.22558594 16.38867188 C-117.74886207 18.40159664 -112.28868231 19.9748161 -106.69042969 17.65429688 C-104.26732801 16.12300102 -102.14074373 14.44478375 -99.95214844 12.59179688 C-98.40034115 11.29034518 -96.84849824 9.98893533 -95.2956543 8.6887207 C-93.76655643 7.39623826 -92.25728571 6.08040878 -90.74902344 4.76367188 C-84.281007 -0.25897776 -75.96564005 -1.36166316 -67.95214844 -0.40820312 C-64.65495173 0.78582355 -61.65369416 2.4194327 -58.57714844 4.09179688 C-48.73435334 9.18558963 -48.73435334 9.18558963 -37.95214844 8.59179688 C-34.64247209 6.92904081 -31.84119224 4.89514759 -28.95214844 2.59179688 C-19.93051595 -3.74506096 -10.05208009 -4.66082606 0 0 Z " fill="#6ABE57" transform="translate(468.9521484375,447.408203125)"/>
<path d="M0 0 C1.8425419 0.92641771 3.65899789 1.8927849 5.47753906 2.86523438 C13.90653993 6.94140328 22.7661375 7.74005016 32.04785156 6.59179688 C35.10929197 5.30599519 35.10929197 5.30599519 37.92285156 3.59179688 C45.24459497 -0.51073495 52.8621222 -1.15717796 61.04785156 0.59179688 C64.37778664 1.85957735 67.40044424 3.62688914 70.49121094 5.38427734 C80.21254766 10.67054489 91.2424401 11.88129357 102.04785156 13.59179688 C103.27439453 13.78789551 104.5009375 13.98399414 105.76464844 14.18603516 C126.33504854 18.38486671 126.33504854 18.38486671 146.42285156 14.90429688 C147.06859131 14.63319092 147.71433105 14.36208496 148.37963867 14.08276367 C152.18153882 12.471022 155.89420035 10.70473646 159.61035156 8.90429688 C174.67044683 1.96725448 189.66355062 2.12760542 205.04785156 7.59179688 C218.0684019 13.56631374 229.03021932 23.54659605 239.36035156 33.27929688 C240.04798584 33.92511719 240.73562012 34.5709375 241.4440918 35.23632812 C244.15842276 37.79999114 246.83101345 40.36158708 249.39160156 43.08007812 C266.47385595 60.53515949 303.06941573 63.23137566 326.04785156 66.59179688 C327.04880859 66.74132812 328.04976562 66.89085937 329.08105469 67.04492188 C355.90574507 72.33088423 355.90574507 72.33088423 380.98535156 66.34179688 C382.34280249 65.09536423 383.69719739 63.84559138 385.04785156 62.59179688 C397.32279392 55.83458105 414.39941938 55.12012133 427.83300781 58.65039062 C436.01841578 61.30145432 442.88719072 65.5797234 449.04785156 71.59179688 C449.69109375 72.20796875 450.33433594 72.82414063 450.99707031 73.45898438 C460.41728913 83.30832379 464.00780035 95.24139434 464.04785156 108.59179688 C463.0889604 117.63005811 460.74923463 124.52735821 455.04785156 131.59179688 C454.32597656 132.62304688 453.60410156 133.65429688 452.86035156 134.71679688 C448.0606363 140.27273737 440.99190754 143.9754358 434.17285156 146.40429688 C429.44849746 148.3741689 428.36830572 151.25577157 426.40332031 155.80273438 C419.92271631 169.13746423 408.19431863 176.37462571 394.77441406 181.31054688 C380.94040116 186.06689513 367.08335884 187.56409516 352.54785156 187.96679688 C323.18609918 188.85100333 294.03506378 193.07110688 265.04785156 197.59179688 C262.042107 198.05099533 259.03583441 198.50638787 256.02905273 198.95874023 C254.42464074 199.20034907 252.82058216 199.44432777 251.21704102 199.69165039 C243.39270145 200.88543916 235.64731716 201.74550229 227.72753906 201.83007812 C226.95852768 201.83973602 226.1895163 201.84939392 225.39720154 201.85934448 C222.90570158 201.88411595 220.41446149 201.89675043 217.92285156 201.90429688 C216.63645279 201.90872299 216.63645279 201.90872299 215.32406616 201.91323853 C196.70827119 201.92770603 178.85195942 199.75944196 160.49707031 196.65820312 C145.01821754 194.07988727 129.64244655 193.6165877 114.04785156 195.59179688 C114.28797974 196.51532959 114.28797974 196.51532959 114.53295898 197.45751953 C115.77330726 202.59887784 115.81217574 207.11976512 113.36035156 211.84179688 C106.02971367 220.55931221 99.58037162 223.36468993 88.34143066 224.42767334 C80.76617375 224.96974226 73.16082898 224.92347695 65.5703125 224.9074707 C62.42185271 224.90429587 59.27432192 224.92790101 56.12597656 224.953125 C26.80434384 225.04581964 26.80434384 225.04581964 15.78613281 214.40820312 C8.04785156 205.94749705 8.04785156 205.94749705 8.04785156 200.59179688 C7.30889648 200.65238281 6.56994141 200.71296875 5.80859375 200.77539062 C-34.7384274 203.97874082 -74.4255557 203.52453947 -114.55224609 196.77832031 C-125.32259671 194.97195595 -136.05973532 193.45603759 -146.95214844 192.59179688 C-147.20738281 193.34332031 -147.46261719 194.09484375 -147.72558594 194.86914062 C-150.82720561 201.75394608 -158.20426411 205.80885567 -164.95214844 208.59179688 C-168.44296245 209.75540155 -171.74976764 209.90334667 -175.38964844 210.09179688 C-180.18358656 210.27176804 -180.18358656 210.27176804 -184.88990784 211.09831238 C-187.15693257 211.64080076 -189.18446857 211.73964947 -191.5144043 211.76879883 C-192.86247414 211.78805168 -192.86247414 211.78805168 -194.23777771 211.80769348 C-195.20441849 211.81508041 -196.17105927 211.82246735 -197.16699219 211.83007812 C-198.17371475 211.83814987 -199.18043732 211.84622162 -200.21766663 211.85453796 C-202.35188077 211.8683651 -204.4861169 211.87909338 -206.62036133 211.88696289 C-208.78383958 211.8984338 -210.94729063 211.91880709 -213.1105957 211.94848633 C-242.80616599 212.35564888 -242.80616599 212.35564888 -252.68261719 203.15429688 C-255.3915048 199.82028135 -256.2029629 197.11948861 -256.07714844 192.84179688 C-256.05910156 192.04257812 -256.04105469 191.24335937 -256.02246094 190.41992188 C-255.99925781 189.81664062 -255.97605469 189.21335937 -255.95214844 188.59179688 C-267.97438894 188.8846651 -279.65124206 190.16139153 -291.53295898 192.00219727 C-308.89443405 194.68901975 -326.36934739 197.13951745 -343.95214844 197.59179688 C-344.96519043 197.61902832 -345.97823242 197.64625977 -347.02197266 197.67431641 C-350.45706665 197.75359931 -353.89137737 197.80242187 -357.32714844 197.84179688 C-358.40923584 197.86330811 -359.49132324 197.88481934 -360.60620117 197.90698242 C-370.87447929 197.9487394 -380.06055467 196.49694142 -387.95214844 189.59179688 C-391.87078001 184.06671208 -391.99348025 179.16662912 -390.95214844 172.59179688 C-372.26409129 120.83577568 -303.30430781 88.67390476 -257.45678711 67.04199219 C-239.68975727 58.78420831 -221.5745796 51.4658075 -203.26074219 44.52148438 C-202.32545685 44.16662964 -201.39017151 43.8117749 -200.42654419 43.44616699 C-195.75250888 41.67465009 -191.07561374 39.91133508 -186.39355469 38.16113281 C-170.16350888 32.49637402 -170.16350888 32.49637402 -156.38964844 22.59179688 C-150.89240994 17.41155806 -145.54058308 12.53686485 -137.70214844 11.96679688 C-132.49757052 12.24788035 -128.0011233 14.45174064 -123.22558594 16.38867188 C-117.74886207 18.40159664 -112.28868231 19.9748161 -106.69042969 17.65429688 C-104.26732801 16.12300102 -102.14074373 14.44478375 -99.95214844 12.59179688 C-98.40034115 11.29034518 -96.84849824 9.98893533 -95.2956543 8.6887207 C-93.76655643 7.39623826 -92.25728571 6.08040878 -90.74902344 4.76367188 C-84.281007 -0.25897776 -75.96564005 -1.36166316 -67.95214844 -0.40820312 C-64.65495173 0.78582355 -61.65369416 2.4194327 -58.57714844 4.09179688 C-48.73435334 9.18558963 -48.73435334 9.18558963 -37.95214844 8.59179688 C-34.64247209 6.92904081 -31.84119224 4.89514759 -28.95214844 2.59179688 C-19.93051595 -3.74506096 -10.05208009 -4.66082606 0 0 Z M-22.51464844 18.96679688 C-32.00010255 26.06701984 -40.32294329 26.90951759 -51.95214844 25.59179688 C-56.26207788 24.40692033 -60.0295677 22.7155254 -63.95214844 20.59179688 C-70.56218426 16.91675258 -70.56218426 16.91675258 -77.95214844 16.59179688 C-80.50840346 18.20585934 -82.63194377 20.21084309 -84.82714844 22.27929688 C-86.06360738 23.38825913 -87.30316339 24.49377863 -88.54589844 25.59570312 C-89.135 26.1205127 -89.72410156 26.64532227 -90.33105469 27.18603516 C-95.63694817 31.78713978 -100.98615618 34.60428073 -107.95214844 35.59179688 C-108.60441406 35.6871875 -109.25667969 35.78257812 -109.92871094 35.88085938 C-116.50920827 36.34913447 -122.32383434 33.9985283 -128.40136719 31.78320312 C-131.67488936 30.6848266 -134.50478293 29.78601465 -137.95214844 29.59179688 C-139.99556362 30.68509275 -139.99556362 30.68509275 -141.63964844 32.52929688 C-150.44055575 41.06380902 -159.82614695 46.26764629 -171.20214844 50.65429688 C-172.58823125 51.20307597 -173.97379713 51.75316222 -175.35888672 52.30444336 C-183.14596632 55.38933886 -190.97378535 58.36773668 -198.80371094 61.34179688 C-202.14520921 62.61170564 -205.48636203 63.88251654 -208.82714844 65.15429688 C-209.65569336 65.4694223 -210.48423828 65.78454773 -211.33789062 66.10922241 C-224.91796928 71.28689295 -238.13856851 76.95825083 -251.22998047 83.28662109 C-253.78993257 84.51402055 -256.36336389 85.70313617 -258.94824219 86.87695312 C-271.71146309 92.70395483 -283.83427405 99.53388008 -295.95214844 106.59179688 C-296.83612305 107.10145996 -297.72009766 107.61112305 -298.63085938 108.13623047 C-310.9530828 115.2526971 -322.60958602 122.99876661 -333.95214844 131.59179688 C-334.91636719 132.32140625 -335.88058594 133.05101562 -336.87402344 133.80273438 C-350.98335478 144.81160756 -367.00044319 158.60162173 -373.95214844 175.59179688 C-373.56215235 177.71523803 -373.56215235 177.71523803 -372.95214844 179.59179688 C-367.21282147 179.64219967 -361.47363039 179.67797649 -355.73413086 179.70166016 C-353.79205068 179.71155977 -351.84998471 179.72508286 -349.90795898 179.74267578 C-330.75495569 179.91151221 -312.15670278 178.20053948 -293.23400879 175.36044312 C-279.13828828 173.25724935 -265.22376095 171.76469086 -250.95214844 171.59179688 C-251.1367921 167.24995485 -251.1367921 167.24995485 -252.95214844 163.59179688 C-253.53694376 156.34033489 -253.53694376 156.34033489 -251.38964844 153.59179688 C-248.02610684 152.21188237 -245.55975885 152.21204841 -241.95214844 152.59179688 C-238.93234649 153.86682436 -237.42078205 154.73973577 -235.83496094 157.62304688 C-234.60841015 161.74773094 -234.62299189 165.6235641 -234.63964844 169.90429688 C-234.62353516 170.72091797 -234.60742188 171.53753906 -234.59082031 172.37890625 C-234.5862282 178.14200491 -235.74045769 182.28258114 -237.95214844 187.59179688 C-238.20729379 190.4271514 -238.20729379 190.4271514 -237.95214844 192.59179688 C-235.3165083 193.90961695 -233.327684 193.73338692 -230.37597656 193.75292969 C-229.20715942 193.76253723 -228.03834229 193.77214478 -226.83410645 193.78204346 C-224.92800598 193.78841827 -224.92800598 193.78841827 -222.98339844 193.79492188 C-221.67818237 193.80062195 -220.37296631 193.80632202 -219.02819824 193.81219482 C-216.25740164 193.82271122 -213.48663407 193.82854801 -210.71582031 193.83203125 C-207.1900164 193.83748228 -203.6646053 193.86143355 -200.13892365 193.8900032 C-196.75375736 193.91329503 -193.36864058 193.9150919 -189.98339844 193.91992188 C-188.10158875 193.93844208 -188.10158875 193.93844208 -186.1817627 193.95733643 C-177.84613641 193.93638558 -169.37750817 193.58156194 -162.57714844 188.21679688 C-155.89090766 180.46683598 -155.13960825 169.14443906 -155.56152344 159.33789062 C-156.54059258 149.94861759 -160.8874711 141.79803068 -168.22216797 135.80249023 C-171.08102651 133.8017734 -174.18102087 132.68906029 -177.45214844 131.52929688 C-189.6899026 127.11628856 -189.6899026 127.11628856 -191.95214844 122.59179688 C-192.52686108 115.35041756 -192.52686108 115.35041756 -190.38964844 112.52929688 C-182.82597491 109.62019167 -173.34067764 115.40375579 -166.50292969 118.41992188 C-156.38875094 123.10472906 -147.2461321 131.10673346 -143.07714844 141.71679688 C-142.69588692 143.0066292 -142.32144335 144.29848754 -141.95214844 145.59179688 C-141.60152344 146.74421875 -141.25089844 147.89664063 -140.88964844 149.08398438 C-139.53457081 154.54857845 -139.73610413 159.99607375 -139.82714844 165.59179688 C-139.83617187 166.65269531 -139.84519531 167.71359375 -139.85449219 168.80664062 C-139.8778732 171.40193326 -139.91064288 173.99674153 -139.95214844 176.59179688 C-139.30705322 176.6564917 -138.66195801 176.72118652 -137.99731445 176.7878418 C-124.62658924 178.15029215 -111.3575482 179.77342677 -98.08618164 181.87945557 C-85.69060156 183.83891018 -73.51998608 185.47319093 -60.95214844 185.59179688 C-59.19789551 185.62031738 -59.19789551 185.62031738 -57.40820312 185.64941406 C-35.8457754 185.97346139 -14.45878155 185.12130209 7.04785156 183.59179688 C7.51167236 181.9599646 7.51167236 181.9599646 7.98486328 180.29516602 C12.28498575 165.31387118 20.0872597 143.22098161 34.04785156 134.59179688 C37.96363485 134.10232396 40.1293275 134.0029994 43.48535156 136.15429688 C45.64072226 139.51667517 45.42929448 141.64742557 45.04785156 145.59179688 C43.29003906 148.29492187 43.29003906 148.29492187 40.92285156 150.84179688 C36.34337418 156.08267445 33.1376736 161.3838058 30.04785156 167.59179688 C29.65726562 168.32527344 29.26667969 169.05875 28.86425781 169.81445312 C24.27299235 178.54290285 23.12618411 186.74886112 24.04785156 196.59179688 C26.10709006 201.5682899 29.00474485 203.51361139 33.65722656 205.83007812 C39.67102197 207.74623843 46.10042976 207.75006134 52.36035156 207.75976562 C53.13233887 207.76309402 53.90432617 207.76642242 54.69970703 207.76985168 C56.32665417 207.77488363 57.9536115 207.77726117 59.58056641 207.77709961 C62.01385521 207.7792666 64.44667508 207.79740838 66.87988281 207.81640625 C77.08835022 207.85178752 86.95592338 207.12733595 97.04785156 205.59179688 C97.36018799 201.22256183 97.36018799 201.22256183 95.46582031 197.46679688 C90.35021406 193.16646237 85.22674796 189.79741481 79.23535156 186.81835938 C77.04785156 185.59179688 77.04785156 185.59179688 76.04785156 183.59179688 C75.48535156 180.52929688 75.48535156 180.52929688 76.04785156 176.59179688 C77.79953157 174.15100418 79.75354846 172.06807308 81.83691406 169.90429688 C83.8863876 167.76067791 85.69139015 165.57505601 87.48535156 163.21679688 C100.79501318 145.92639171 100.79501318 145.92639171 106.04785156 143.59179688 C109.23312877 143.65425329 111.16542802 144.09175687 113.92285156 145.65429688 C115.36769851 148.1426444 115.88620201 150.34893676 115.78613281 153.22460938 C114.08048874 158.69349989 108.96082351 162.59580572 105.04785156 166.59179688 C103.45701202 168.40059396 101.89176458 170.23241753 100.36035156 172.09179688 C99.69648437 172.88585937 99.03261719 173.67992187 98.34863281 174.49804688 C97.919375 175.18898438 97.49011719 175.87992188 97.04785156 176.59179688 C97.37785156 177.58179688 97.70785156 178.57179688 98.04785156 179.59179688 C103.33242744 180.85641012 107.40051339 180.16780195 112.61035156 179.15429688 C135.8347512 175.18406466 158.70172083 178.96713111 181.73535156 182.66210938 C217.6915725 188.2174593 252.86513915 182.33784857 288.41796875 176.74902344 C299.19365248 175.06806345 309.92586923 173.81668501 320.79785156 172.96679688 C322.36613824 172.8386479 323.9344161 172.71039099 325.50268555 172.58203125 C334.36915972 171.87157384 343.21835546 171.36599616 352.11035156 171.09179688 C370.73093815 170.48852787 389.89962205 168.44015478 405.04785156 156.59179688 C406.07115964 155.27626719 407.07503831 153.94509365 408.04785156 152.59179688 C368.80141494 148.30300514 331.24376495 148.03737101 291.88378906 150.83789062 C273.93719303 152.10371652 256.10235868 152.80274897 238.10473633 152.83203125 C234.48723821 152.84179178 230.87029688 152.87296284 227.25292969 152.90429688 C192.39546357 153.06170125 192.39546357 153.06170125 178.04785156 146.59179688 C176.8400895 142.96851068 176.64744264 140.3956816 177.04785156 136.59179688 C178.98535156 134.09179688 178.98535156 134.09179688 182.04785156 132.59179688 C184.01025391 132.6098175 184.01025391 132.6098175 186.19628906 132.90161133 C186.99446045 133.00655914 187.79263184 133.11150696 188.61499023 133.21963501 C191.57836009 133.67295031 194.52569144 134.19120937 197.47436523 134.73103333 C209.03097277 136.79463525 220.33613752 137.01944617 232.04785156 136.90429688 C234.0826003 136.89424488 236.11734967 136.88431852 238.15209961 136.87451172 C253.60921742 136.764312 268.98697063 136.06401683 284.40577698 135.02711487 C349.13050581 130.6945406 349.13050581 130.6945406 380.97485352 133.86450195 C399.07101277 135.62994085 420.86495017 137.30065473 436.50878906 125.97851562 C441.30241194 121.65938841 445.57354139 117.13088044 446.45410156 110.56054688 C446.72769821 100.43747095 444.75653907 92.88148265 437.92675781 85.20898438 C429.19321629 77.00520707 420.98034959 74.42477579 409.23535156 74.27929688 C408.46642578 74.25029297 407.6975 74.22128906 406.90527344 74.19140625 C399.12359227 74.1060376 393.78507035 77.10243407 387.67285156 81.71679688 C366.76848199 95.67654452 323.90916771 84.09911997 300.71777344 79.65283203 C253.41832728 70.07147897 253.41832728 70.07147897 236.04785156 53.59179688 C235.42056152 52.9977002 234.79327148 52.40360352 234.14697266 51.79150391 C232.72838462 50.44791023 231.31027 49.10381657 229.89257812 47.75927734 C229.16006836 47.06463379 228.42755859 46.36999023 227.67285156 45.65429688 C226.94163086 44.95965332 226.21041016 44.26500977 225.45703125 43.54931641 C212.98700774 31.78132137 199.50616606 20.03797345 181.50878906 20.25585938 C171.00318108 21.27559108 161.17659904 26.22430646 151.85766602 30.91210938 C139.56312895 37.00842757 126.43574983 34.33285359 113.36035156 32.40429688 C112.20291443 32.23531891 112.20291443 32.23531891 111.02209473 32.06292725 C75.85674125 26.89807848 75.85674125 26.89807848 60.12597656 18.99804688 C55.79462081 17.01925491 52.66186573 16.32216882 48.04785156 17.59179688 C44.56826326 18.98036498 41.21896792 20.5062387 37.86816406 22.18164062 C27.42290603 27.40426964 14.41828666 24.11426604 3.79785156 20.71679688 C-0.3819128 19.26533823 -4.23319569 17.58478252 -8.03808594 15.32617188 C-13.99718979 13.03982183 -17.80933161 15.3532909 -22.51464844 18.96679688 Z " fill="#023850" transform="translate(468.9521484375,447.408203125)"/>
<path d="M0 0 C1.26039597 -0.00990463 2.52079193 -0.01980927 3.81938171 -0.03001404 C5.21370031 -0.02577602 6.60801797 -0.02121816 8.00233459 -0.01637268 C9.47263102 -0.02207573 10.94292301 -0.02903974 12.41320801 -0.03717041 C16.40497886 -0.05512458 20.39653015 -0.05392921 24.38832927 -0.04822803 C27.7209 -0.04513933 31.05342836 -0.05122508 34.38599306 -0.05726677 C42.24805155 -0.07131789 50.11000139 -0.06974594 57.97206116 -0.05836487 C66.08260547 -0.04688352 74.19281913 -0.06095811 82.30331987 -0.08776134 C89.2673513 -0.10991398 96.23127891 -0.11655671 103.19534308 -0.11068493 C107.35439919 -0.10731302 111.51324334 -0.10974576 115.67226982 -0.12693596 C119.58350505 -0.14239614 123.49425028 -0.1384603 127.40546608 -0.11963081 C128.84015687 -0.11594227 130.27488389 -0.11906123 131.70954132 -0.1295166 C133.66936085 -0.14270776 135.6293068 -0.12878247 137.58911133 -0.11352539 C138.68545867 -0.11331611 139.78180601 -0.11310682 140.911376 -0.1128912 C144.58677748 0.51147441 146.26242999 1.74822584 148.85804749 4.38768005 C149.48304749 7.82518005 149.48304749 7.82518005 148.85804749 11.38768005 C146.36946732 14.49762521 144.85780348 16.17514888 140.911376 17.01409245 C139.26685499 17.01497191 139.26685499 17.01497191 137.58911133 17.01586914 C136.32589554 17.0285231 135.06267975 17.04117706 133.76118469 17.05421448 C132.36890763 17.04289921 130.97663466 17.03107178 129.58436584 17.01878357 C128.11229592 17.02392383 126.64023215 17.03120592 125.16818237 17.04046631 C121.1763696 17.05897378 117.18522511 17.04604705 113.1934402 17.02637601 C109.0152743 17.00998562 104.83715058 17.0188028 100.65896606 17.02389526 C93.64375638 17.0284153 86.62881342 17.01255087 79.61366272 16.98460388 C71.50248551 16.95253976 63.391789 16.95257274 55.2805776 16.96981865 C47.47704535 16.98567931 39.6736894 16.97895401 31.87016487 16.96188164 C28.54923881 16.95500803 25.22845392 16.95604667 21.90752983 16.96342659 C17.9978822 16.97108493 14.08878207 16.9589788 10.17922783 16.93157768 C8.74413173 16.92468838 7.30898454 16.92460178 5.87388992 16.93179321 C3.91592125 16.94047466 1.95788814 16.92210981 0 16.90234375 C-1.09597032 16.89953683 -2.19194063 16.89672991 -3.32112217 16.89383793 C-6.80632526 16.26846782 -7.98704179 15.14277635 -10.14195251 12.38768005 C-10.67320251 10.1337738 -10.67320251 10.1337738 -10.64195251 7.82518005 C-10.65226501 7.06076599 -10.66257751 6.29635193 -10.67320251 5.5087738 C-10.14195251 3.38768005 -10.14195251 3.38768005 -8.49262142 1.7793417 C-5.48260581 -0.00267161 -3.49043592 0.00773871 0 0 Z " fill="#003650" transform="translate(620.1419525146484,720.6123199462891)"/>
<path d="M0 0 C1.17762909 -0.00983414 2.35525818 -0.01966827 3.568573 -0.02980042 C4.85184479 -0.02013245 6.13511658 -0.01046448 7.45727539 -0.00050354 C8.82919875 -0.00428863 10.20111828 -0.00979024 11.57302856 -0.01687622 C15.29212078 -0.03082369 19.01074999 -0.01966642 22.72981644 -0.00316501 C26.6245687 0.01069912 30.51929446 0.00422386 34.4140625 0.0007019 C40.95425872 -0.00199915 47.49427131 0.01146625 54.03442383 0.03465271 C61.59225611 0.06126188 69.14978139 0.06300921 76.70764446 0.05126435 C83.98255523 0.04047942 91.25735511 0.04667922 98.53225708 0.06081963 C101.62625759 0.06657325 104.72017678 0.06650167 107.81417847 0.06175423 C111.4586381 0.05697649 115.10276222 0.0671187 118.74715805 0.08870888 C120.72018583 0.096914 122.69325758 0.09043264 124.66629028 0.08351135 C126.43273392 0.0983683 126.43273392 0.0983683 128.23486328 0.11352539 C129.76682091 0.11717023 129.76682091 0.11717023 131.32972717 0.12088871 C134.58453545 0.56493078 136.47751207 1.57582362 139.11743164 3.50120544 C140.56174019 6.38982254 140.4943167 8.29768246 140.11743164 11.50120544 C138.47265872 14.10950803 137.75623047 15.07451572 135.11743164 16.50120544 C130.61195472 17.26432156 126.13817501 17.17321053 121.578125 17.13230896 C120.18487131 17.13744966 118.79162413 17.14473209 117.39839172 17.1539917 C113.62143481 17.17249365 109.84518452 17.15957615 106.06825709 17.1399014 C102.11430853 17.12350653 98.16040441 17.1323288 94.20643616 17.13742065 C87.5678479 17.14194017 80.92954155 17.1260795 74.29101562 17.09812927 C66.61608255 17.06606462 58.9416575 17.06609854 51.26668829 17.08334404 C43.88175838 17.09920645 36.49701473 17.09247834 29.11209297 17.07540703 C25.96979375 17.06853471 22.82764374 17.06957072 19.6853466 17.07695198 C15.98580553 17.08461216 12.28684286 17.07249839 8.58740044 17.04510307 C6.58198217 17.03492988 4.57649446 17.04440402 2.57107544 17.0544281 C1.37799271 17.04170364 0.18490997 17.02897919 -1.04432678 17.01586914 C-2.08130235 17.01306222 -3.11827791 17.0102553 -4.18667698 17.00736332 C-7.57551561 16.3711035 -8.75948847 15.16102309 -10.88256836 12.50120544 C-11.44897461 10.50120544 -11.44897461 10.50120544 -11.44506836 8.50120544 C-11.46698242 7.84120544 -11.48889648 7.18120544 -11.51147461 6.50120544 C-9.83812501 1.17974586 -5.01316315 0.00102729 0 0 Z " fill="#003650" transform="translate(372.882568359375,762.4987945556641)"/>
<path d="M0 0 C1.3719247 -0.00350285 2.74384534 -0.00916329 4.11575317 -0.01681519 C7.83495292 -0.03104976 11.55341214 -0.01401553 15.27254105 0.00946999 C19.16728675 0.02959501 23.06200219 0.02369857 26.95678711 0.0213623 C33.4970316 0.02141586 40.03698703 0.041162 46.57714844 0.07324219 C54.13498876 0.11013435 61.69245046 0.11891758 69.25036907 0.11194468 C76.52529188 0.10563608 83.80008505 0.11640054 91.07498169 0.13591003 C94.1689743 0.1440778 97.26290059 0.14679473 100.35690308 0.1452179 C104.00138082 0.14433795 107.64549963 0.15858431 111.28988266 0.18444443 C113.26289859 0.19500519 115.23597585 0.19093771 117.20901489 0.18643188 C118.38664398 0.19778168 119.56427307 0.20913147 120.77758789 0.2208252 C122.30954552 0.22641827 122.30954552 0.22641827 123.87245178 0.23212433 C127.12565601 0.67920731 129.02086261 1.69081479 131.66015625 3.61523438 C133.08677844 6.46847875 132.97049493 8.44977987 132.66015625 11.61523438 C131.00830841 14.27519131 131.00830841 14.27519131 128.66015625 16.61523438 C125.94585419 17.24164677 125.94585419 17.24164677 122.77722168 17.24342346 C121.57427963 17.25607742 120.37133759 17.26873138 119.13194275 17.2817688 C117.15720726 17.2642305 117.15720726 17.2642305 115.14257812 17.24633789 C113.7396199 17.25147696 112.33666814 17.25875815 110.93373108 17.26802063 C107.12572669 17.28654509 103.31842188 17.27359017 99.51044655 17.25393033 C95.52579553 17.23755078 91.54118906 17.24635575 87.55651855 17.25144958 C80.86487649 17.25597134 74.17351387 17.24009582 67.48193359 17.2121582 C59.74510654 17.18010573 52.00878352 17.18012164 44.27192068 17.19737297 C36.82986219 17.21323586 29.38798852 17.2065061 21.94593811 17.18943596 C18.77851951 17.18256266 15.61124893 17.1836007 12.4438324 17.19098091 C8.71393771 17.19864126 4.98461672 17.18652673 1.25481987 17.159132 C-0.76730697 17.14895815 -2.78950266 17.15843329 -4.81163025 17.16845703 C-6.0145723 17.15573257 -7.21751434 17.14300812 -8.45690918 17.12989807 C-9.50255791 17.12709115 -10.54820663 17.12428423 -11.62554169 17.12139225 C-15.05808819 16.48129752 -16.24121488 15.36228334 -18.33984375 12.61523438 C-19.01259942 8.50394971 -18.87961016 6.46678578 -16.63842773 2.93103027 C-12.21716875 -1.16802245 -5.62351232 -0.05812176 0 0 Z " fill="#003650" transform="translate(191.33984375,711.384765625)"/>
<path d="M0 0 C1.22164856 -0.00700928 2.44329712 -0.01401855 3.70196533 -0.02124023 C7.04522287 -0.03581466 10.38748836 -0.03241962 13.73069 -0.01972389 C17.23307099 -0.00958021 20.73541027 -0.01899335 24.23779297 -0.02526855 C30.11889231 -0.03254102 35.99979058 -0.02296796 41.88085938 -0.00390625 C48.67532147 0.01786196 55.46930343 0.01081029 62.26375389 -0.01121187 C68.10256745 -0.02937747 73.94123666 -0.0319186 79.78006935 -0.0214572 C83.26506035 -0.01522855 86.74982583 -0.01436904 90.23480225 -0.02760315 C94.12026562 -0.04132807 98.00519335 -0.02229288 101.890625 0 C103.04298645 -0.00809692 104.1953479 -0.01619385 105.38262939 -0.02453613 C113.1714697 0.05835694 113.1714697 0.05835694 117.15942383 2.42492676 C119.08852223 4.68538704 119.60517156 5.58535237 119.5078125 8.51757812 C119.50910156 9.17757812 119.51039063 9.83757813 119.51171875 10.51757812 C118.69225333 13.41113878 117.24323391 14.61212893 114.9453125 16.51757812 C112.44686031 17.02094269 112.44686031 17.02094269 109.58714294 17.0255127 C108.50055389 17.03679199 107.41396484 17.04807129 106.29444885 17.05969238 C105.10729782 17.05159546 103.92014679 17.04349854 102.69702148 17.03515625 C100.81605774 17.04567017 100.81605774 17.04567017 98.89709473 17.05639648 C95.46095027 17.07098661 92.02576903 17.06756624 88.58967853 17.05488014 C84.99426655 17.04475131 81.39889565 17.05414528 77.80348206 17.0604248 C71.7667807 17.06770065 65.73027514 17.05811433 59.69360352 17.0390625 C52.71224271 17.01728381 45.73134899 17.02435225 38.74999946 17.04636812 C32.75667489 17.06451231 26.76349102 17.06708562 20.77014786 17.05661345 C17.19019255 17.05037429 13.61045691 17.0495544 10.03051567 17.0627594 C6.04156159 17.07644566 2.05313209 17.05748411 -1.93579102 17.03515625 C-3.12496628 17.04325317 -4.31414154 17.0513501 -5.53935242 17.05969238 C-6.62312164 17.04841309 -7.70689087 17.03713379 -8.82350159 17.0255127 C-9.76683129 17.02400459 -10.710161 17.02249649 -11.68207645 17.02094269 C-14.0546875 16.51757812 -14.0546875 16.51757812 -15.85233974 14.61083221 C-17.13171174 12.38348107 -17.5148541 11.06691587 -17.5546875 8.51757812 C-17.585625 7.85757813 -17.6165625 7.19757812 -17.6484375 6.51757812 C-15.32487709 -1.30915168 -6.49739289 -0.04565312 0 0 Z " fill="#013852" transform="translate(510.0546875,834.482421875)"/>
<path d="M0 0 C0.91782761 -0.00554901 1.83565521 -0.01109802 2.78129578 -0.01681519 C5.80460395 -0.02859211 8.82640681 -0.00435572 11.84960938 0.02148438 C13.95658296 0.02319607 16.06355868 0.0231292 18.17053223 0.0213623 C22.58215768 0.02301445 26.99327431 0.04169352 31.40478516 0.07324219 C37.05406068 0.11291907 42.70266999 0.11728666 48.35205841 0.10977936 C52.7015796 0.10670692 57.05095158 0.11883999 61.4004364 0.13591003 C63.48320072 0.14293144 65.56598195 0.14606561 67.64875793 0.1452179 C70.56172127 0.14701957 73.4738927 0.16843348 76.38671875 0.1953125 C77.24404099 0.1923819 78.10136322 0.18945129 78.98466492 0.18643188 C83.9418224 0.2568552 87.40421119 0.85112604 91.69335938 3.61523438 C93.23922813 6.70697189 92.98695459 9.2095299 92.69335938 12.61523438 C91.27197266 14.80845642 91.27197266 14.80845642 88.69335938 16.61523438 C85.50672798 17.2171667 82.35824161 17.17177032 79.12304688 17.14868164 C77.66877289 17.161605 77.66877289 17.161605 76.18511963 17.17478943 C72.97926159 17.19749883 69.7742741 17.19070158 66.56835938 17.18164062 C64.34163146 17.18687376 62.11490577 17.1931491 59.88818359 17.20042419 C55.22092255 17.21083745 50.55396622 17.20625312 45.88671875 17.19165039 C39.90071675 17.17445625 33.915674 17.19796156 27.92977905 17.23313999 C23.33155944 17.25508156 18.73357053 17.2536804 14.13531494 17.24537468 C11.92806953 17.24455349 9.72080747 17.25144881 7.51361084 17.26614571 C4.42969467 17.28353241 1.34751749 17.26909755 -1.73632812 17.24633789 C-2.65073669 17.25803009 -3.56514526 17.26972229 -4.50726318 17.2817688 C-10.68248529 17.18886912 -10.68248529 17.18886912 -13.86572266 14.26329041 C-15.66588823 10.95502485 -16.07859179 9.32059996 -15.30664062 5.61523438 C-10.48687467 0.41957887 -6.90392515 -0.1068075 0 0 Z " fill="#003752" transform="translate(741.306640625,792.384765625)"/>
<path d="M0 0 C5.75763388 2.75065043 10.09470558 6.96970558 14.5625 11.4375 C14.895057 15.0291156 14.96116425 17.57372746 13.4375 20.875 C11.5625 22.4375 11.5625 22.4375 8.6875 22.9375 C4.00092374 22.1876478 1.69961161 19.72133568 -1.375 16.25 C-4.12450301 13.83377009 -5.78256587 13.36290951 -9.4375 13.4375 C-11.12512851 15.0829378 -12.7915349 16.75038577 -14.4375 18.4375 C-17.5625 19 -17.5625 19 -20.4375 18.4375 C-22.375 16.9375 -22.375 16.9375 -23.4375 14.4375 C-23.4375 9.58152659 -23.2382424 7.46702594 -20.25 3.625 C-13.57375369 -1.56763602 -8.03470151 -3.20283634 0 0 Z " fill="#04394F" transform="translate(657.4375,500.5625)"/>
<path d="M0 0 C3.7 1.4 3.7 1.4 5 4 C5.35173852 7.79877599 5.52701444 10.14360153 3.5 13.4375 C-0.18144512 15.7384032 -2.69368174 15.34728373 -7 15 C-7.66 14.67 -8.32 14.34 -9 14 C-9 13.34 -9 12.68 -9 12 C-9.66 12 -10.32 12 -11 12 C-11.23816991 9.1419611 -11.42242213 6.80188855 -11 4 C-7.68815773 0.10371498 -5.00802417 -0.63932223 0 0 Z " fill="#03364E" transform="translate(885,535)"/>
<path d="M0 0 C0 0.33 0 0.66 0 1 C-0.90500244 1.01458252 -1.81000488 1.02916504 -2.74243164 1.04418945 C-25.67464666 1.44861501 -48.5077304 2.52959538 -71.39013672 4.09002686 C-75.92640042 4.39882475 -80.4630665 4.70121783 -85 5 C-85.79703339 5.05332489 -86.59406677 5.10664978 -87.41525269 5.16159058 C-101.1765902 6.06199288 -114.90058377 6.11871252 -128.6875 6.0625 C-130.86523333 6.05746834 -133.0429678 6.05290842 -135.22070312 6.04882812 C-140.4804943 6.03796971 -145.74024154 6.02136715 -151 6 C-151 5.67 -151 5.34 -151 5 C-146.06031269 4.85423619 -141.12053869 4.7120254 -136.18066406 4.57275391 C-134.50908824 4.52516797 -132.83753719 4.47670136 -131.16601562 4.42724609 C-119.44035634 4.08112724 -107.73069565 3.93650503 -96 4 C-96 3.34 -96 2.68 -96 2 C-94.47826172 2.03480469 -94.47826172 2.03480469 -92.92578125 2.0703125 C-82.25801674 2.2252511 -71.66869811 1.79464927 -61.02484131 1.14294434 C-40.67037259 -0.10187002 -20.38664186 -0.2161892 0 0 Z " fill="#042E36" transform="translate(835,595)"/>
<path d="M0 0 C0.7655722 -0.00499512 1.53114441 -0.00999023 2.31991577 -0.01513672 C13.71761667 -0.07614817 24.8240391 0.78199531 36.125 2.25 C36.125 2.58 36.125 2.91 36.125 3.25 C10.055 3.25 -16.015 3.25 -42.875 3.25 C-42.875 2.92 -42.875 2.59 -42.875 2.25 C-28.56774843 0.66502258 -14.38302065 0.03217228 0 0 Z " fill="#6BBC6B" transform="translate(815.875,595.75)"/>
<path d="M0 0 C16.5 0 33 0 50 0 C50 0.33 50 0.66 50 1 C27.96506063 3.05637558 6.10906673 3.23052444 -16 3 C-16 2.67 -16 2.34 -16 2 C-8.08 1.505 -8.08 1.505 0 1 C0 0.67 0 0.34 0 0 Z " fill="#76C969" transform="translate(703,581)"/>
<path d="M0 0 C0.66 0.33 1.32 0.66 2 1 C-1.22591171 6.34058391 -5.21979818 10.42257807 -9.6875 14.75 C-11.04775067 16.07589448 -12.40593135 17.40391696 -13.76171875 18.734375 C-14.35944092 19.31413086 -14.95716309 19.89388672 -15.57299805 20.49121094 C-17.10129259 21.96117988 -17.10129259 21.96117988 -18 24 C-20.5625 24.625 -20.5625 24.625 -23 25 C-18.60930075 18.70859298 -13.60155074 13.35588098 -8.125 8 C-7.34125 7.22527344 -6.5575 6.45054687 -5.75 5.65234375 C-3.83786662 3.76352907 -1.92119818 1.87958609 0 0 Z " fill="#9DD0E8" transform="translate(240,200)"/>
<path d="M0 0 C0.60231445 0.06566162 1.20462891 0.13132324 1.82519531 0.19897461 C12.77621639 1.25658918 23.75708445 1.34662437 34.75 1.5625 C36.81511132 1.60577981 38.8802156 1.6493968 40.9453125 1.69335938 C45.96346895 1.79946186 50.98169868 1.90099647 56 2 C56 2.33 56 2.66 56 3 C51.32683792 3.14575769 46.65358434 3.28796908 41.98022461 3.42724609 C40.3988166 3.47483365 38.81743474 3.52330039 37.23608398 3.57275391 C32.6059025 3.71721675 27.97587488 3.84020421 23.34454346 3.94140625 C20.95787604 4.00105274 18.57288213 4.08651595 16.18701172 4.171875 C14.65465081 4.20950861 13.1222616 4.24601128 11.58984375 4.28125 C10.88436905 4.31287231 10.17889435 4.34449463 9.45204163 4.3770752 C5.91367181 4.43227724 4.31291141 4.25514553 1.52563477 1.98242188 C1.02217529 1.32822266 0.51871582 0.67402344 0 0 Z " fill="#5FAD6A" transform="translate(664,599)"/>
<path d="M0 0 C11.70795574 -0.14534014 23.31514456 0.28874793 35 1 C30.20198236 4.19867843 24.67702054 3.33325456 19.06616211 3.31567383 C16.94137671 3.31250578 14.81797345 3.33600876 12.69335938 3.36132812 C11.34635593 3.36360037 9.99934873 3.36430496 8.65234375 3.36328125 C7.42507568 3.36626221 6.19780762 3.36924316 4.93334961 3.37231445 C3.96534424 3.24945068 2.99733887 3.12658691 2 3 C1.34 2.01 0.68 1.02 0 0 Z " fill="#0B425C" transform="translate(737,582)"/>
<path d="M0 0 C-3.49918595 1.4394871 -6.99949491 2.87622406 -10.5 4.3125 C-11.97339844 4.91868164 -11.97339844 4.91868164 -13.4765625 5.53710938 C-29.63362069 12.16150323 -29.63362069 12.16150323 -35 13 C-32.35981347 9.78596255 -29.29948438 8.73117903 -25.46875 7.265625 C-24.83642456 7.02334167 -24.20409912 6.78105835 -23.5526123 6.53143311 C-22.2193894 6.02325858 -20.88458746 5.51920989 -19.54833984 5.01904297 C-17.50231318 4.25086848 -15.46405349 3.46426689 -13.42578125 2.67578125 C-12.12803051 2.18376981 -10.82986655 1.69284665 -9.53125 1.203125 C-8.35111328 0.75614258 -7.17097656 0.30916016 -5.95507812 -0.15136719 C-3 -1 -3 -1 0 0 Z " fill="#70C16E" transform="translate(301,499)"/>
<path d="M0 0 C-1.11375 0.45375 -2.2275 0.9075 -3.375 1.375 C-6.96199008 2.72465986 -6.96199008 2.72465986 -9 5 C-10.30710938 5.21269531 -10.30710938 5.21269531 -11.640625 5.4296875 C-16.34786151 6.228823 -20.42231356 8.11976113 -24.78515625 10.00390625 C-26.50192688 10.72295447 -28.24944813 11.36762361 -30 12 C-30.66 11.67 -31.32 11.34 -32 11 C-24.89568132 7.56948995 -17.73730033 4.39324722 -10.375 1.5625 C-9.68857422 1.29163574 -9.00214844 1.02077148 -8.29492188 0.74169922 C-3.35562189 -1.11854063 -3.35562189 -1.11854063 0 0 Z " fill="#70C36B" transform="translate(265,513)"/>
<path d="M0 0 C4.36946936 1.65445927 7.09301697 4.95358317 10.25 8.25 C14.88996575 13.00500082 19.50324302 17.22771579 25 21 C24.67 21.66 24.34 22.32 24 23 C17.75662166 18.04533502 11.69865056 12.9347221 5.8125 7.5625 C5.23604736 7.04268555 4.65959473 6.52287109 4.06567383 5.98730469 C2.67022413 4.70050057 1.32948484 3.35484862 0 2 C0 1.34 0 0.68 0 0 Z " fill="#093643" transform="translate(692,488)"/>
<path d="M0 0 C0 0.99 0 1.98 0 3 C-0.99 3.66 -1.98 4.32 -3 5 C-3 5.33 -3 5.66 -3 6 C-7.62 6 -12.24 6 -17 6 C-14.64581157 3.64581157 -12.74416329 3.00391969 -9.625 1.875 C-8.66851562 1.52179687 -7.71203125 1.16859375 -6.7265625 0.8046875 C-4 0 -4 0 0 0 Z " fill="#57A1CA" transform="translate(84,554)"/>
<path d="M0 0 C0.99 0.33 1.98 0.66 3 1 C2.1875 3.4375 2.1875 3.4375 1 6 C0.01 6.33 -0.98 6.66 -2 7 C-1.67 8.32 -1.34 9.64 -1 11 C-4.75 14 -4.75 14 -7 14 C-5.53967505 8.68972746 -3.01679014 4.53669968 0 0 Z " fill="#65A9CE" transform="translate(18,599)"/>
<path d="M0 0 C0.33 0 0.66 0 1 0 C3.57996518 5.87094438 3.22552426 11.59609985 3.125 17.875 C3.11597656 18.94492187 3.10695313 20.01484375 3.09765625 21.1171875 C3.07419342 23.74502439 3.04136459 26.37239406 3 29 C2.67 29 2.34 29 2 29 C1.66022275 25.66729126 1.32936937 22.33375214 1 19 C0.90460938 18.06542969 0.80921875 17.13085938 0.7109375 16.16796875 C0.18019535 10.74681677 -0.1027694 5.44677829 0 0 Z " fill="#ADD6E8" transform="translate(118,508)"/>
<path d="M0 0 C0.66 0.33 1.32 0.66 2 1 C-0.31 3.64 -2.62 6.28 -5 9 C-3.91447634 10.31262571 -3.91447634 10.31262571 -1.27734375 10.09765625 C-0.17519531 10.08605469 0.92695312 10.07445312 2.0625 10.0625 C3.16722656 10.05347656 4.27195312 10.04445313 5.41015625 10.03515625 C6.26480469 10.02355469 7.11945312 10.01195312 8 10 C4.92050484 12.05299677 3.57483032 12.38826122 0 12.75 C-1.299375 12.89695312 -1.299375 12.89695312 -2.625 13.046875 C-5 13 -5 13 -8 11 C-6.63629701 8.00779732 -5.05091917 5.70973471 -2.875 3.25 C-2.33617187 2.63640625 -1.79734375 2.0228125 -1.2421875 1.390625 C-0.62730469 0.70226562 -0.62730469 0.70226562 0 0 Z " fill="#70C26B" transform="translate(574,615)"/>
<path d="M0 0 C0 0.33 0 0.66 0 1 C-1.051875 1.226875 -2.10375 1.45375 -3.1875 1.6875 C-6.40820021 2.57059522 -7.16070886 3.16070886 -9.6875 5.6875 C-10.8321875 6.8321875 -10.8321875 6.8321875 -12 8 C-14.14453125 7.64453125 -14.14453125 7.64453125 -16 7 C-14.71064081 5.85157077 -13.41843421 4.70633773 -12.125 3.5625 C-11.04605469 2.60537109 -11.04605469 2.60537109 -9.9453125 1.62890625 C-6.33875672 -1.39104106 -4.52010282 -0.88436794 0 0 Z M-15 9 C-13 10 -13 10 -13 10 Z " fill="#0A4049" transform="translate(581,591)"/>
<path d="M0 0 C0.66 0.33 1.32 0.66 2 1 C2 1.66 2 2.32 2 3 C0.35 3.33 -1.3 3.66 -3 4 C-3.33 4.99 -3.66 5.98 -4 7 C-7.4352048 9.29013653 -8.985331 9.17842973 -13 9 C-13 8.34 -13 7.68 -13 7 C-10.88002166 5.80266012 -8.75486324 4.61701287 -6.625 3.4375 C-6.02171875 3.09525391 -5.4184375 2.75300781 -4.796875 2.40039062 C-3.23021759 1.53872905 -1.61709138 0.76281817 0 0 Z " fill="#8ECAE5" transform="translate(335,134)"/>
<path d="M0 0 C0.66 0 1.32 0 2 0 C2 0.66 2 1.32 2 2 C2.99 2 3.98 2 5 2 C8 6.22222222 8 6.22222222 8 9 C8.66 9 9.32 9 10 9 C10.33 10.65 10.66 12.3 11 14 C11.66 14 12.32 14 13 14 C12.67 14.99 12.34 15.98 12 17 C9.99614748 14.3570642 7.9975731 11.71018417 6 9.0625 C5.42765625 8.30775391 4.8553125 7.55300781 4.265625 6.77539062 C3.72421875 6.05673828 3.1828125 5.33808594 2.625 4.59765625 C2.12226563 3.93258057 1.61953125 3.26750488 1.1015625 2.58227539 C0 1 0 1 0 0 Z " fill="#78B3D2" transform="translate(128,783)"/>
<path d="M0 0 C2.4214607 3.63219105 2.29869516 5.49158558 2.3125 9.8125 C2.32925781 11.01519531 2.34601562 12.21789062 2.36328125 13.45703125 C1.97224111 17.27072383 0.91114324 19.70718592 -1 23 C-1.93423645 19.98968256 -2.04449911 19.13349732 -1 16 C-0.77202438 13.26710707 -0.58331813 10.54957796 -0.4375 7.8125 C-0.39431641 7.06291016 -0.35113281 6.31332031 -0.30664062 5.54101562 C-0.20077315 3.69421625 -0.0999024 1.84713166 0 0 Z " fill="#5EAC63" transform="translate(913,544)"/>
<path d="M0 0 C0.33 0 0.66 0 1 0 C1.33 6.6 1.66 13.2 2 20 C2.66 20 3.32 20 4 20 C4.33 20.99 4.66 21.98 5 23 C3.02 23.33 1.04 23.66 -1 24 C-0.67 16.08 -0.34 8.16 0 0 Z " fill="#6EC163" transform="translate(330,600)"/>
<path d="M0 0 C2.60444348 -0.05394705 5.20776998 -0.09364469 7.8125 -0.125 C8.55048828 -0.14175781 9.28847656 -0.15851562 10.04882812 -0.17578125 C13.91246426 -0.21074628 15.70903668 -0.19397555 19 2 C18.67 2.99 18.34 3.98 18 5 C15.69 5 13.38 5 11 5 C11.33 4.01 11.66 3.02 12 2 C8.04 1.67 4.08 1.34 0 1 C0 0.67 0 0.34 0 0 Z " fill="#77CA6C" transform="translate(871,522)"/>
<path d="M0 0 C0.33 0 0.66 0 1 0 C1.33970765 2.49927769 1.67188032 4.99919595 2 7.5 C2.09539063 8.19609375 2.19078125 8.8921875 2.2890625 9.609375 C2.9161622 14.44700129 3.08789528 19.12181196 3 24 C2.67 24 2.34 24 2 24 C-0.15758273 18.75044832 -0.24042211 14.19189716 -0.125 8.625 C-0.11597656 7.79355469 -0.10695313 6.96210938 -0.09765625 6.10546875 C-0.0742622 4.07018663 -0.03839725 2.03505436 0 0 Z " fill="#AFD6E6" transform="translate(899,421)"/>
<path d="M0 0 C0.66 0.33 1.32 0.66 2 1 C0.51095825 4.89608498 -1.24378713 8.59097018 -3.125 12.3125 C-3.66382813 13.38113281 -4.20265625 14.44976563 -4.7578125 15.55078125 C-5.37269531 16.76314453 -5.37269531 16.76314453 -6 18 C-6.33 18 -6.66 18 -7 18 C-7 16.35 -7 14.7 -7 13 C-6.34 13 -5.68 13 -5 13 C-5 11.68 -5 10.36 -5 9 C-4.34 9 -3.68 9 -3 9 C-3 7.68 -3 6.36 -3 5 C-2.34 5 -1.68 5 -1 5 C-0.67 3.35 -0.34 1.7 0 0 Z " fill="#7BB3D1" transform="translate(930,769)"/>
<path d="M0 0 C0.66 0 1.32 0 2 0 C0.48109469 4.55671592 -1.95402262 8.31723292 -5 12 C-5.33 12 -5.66 12 -6 12 C-6 10.02 -6 8.04 -6 6 C-5.34 6 -4.68 6 -4 6 C-4 5.01 -4 4.02 -4 3 C-3.34 3 -2.68 3 -2 3 C-1.67 2.34 -1.34 1.68 -1 1 C-0.67 0.67 -0.34 0.34 0 0 Z " fill="#66AACF" transform="translate(943,750)"/>
<path d="M0 0 C0 0.66 0 1.32 0 2 C-5.8685408 3.14819277 -11.0885256 2.77313045 -17 2 C-17 1.67 -17 1.34 -17 1 C-11.33357449 -0.22517308 -5.76291482 -0.09228867 0 0 Z " fill="#47A3D5" transform="translate(844,634)"/>
<path d="M0 0 C0.33 0 0.66 0 1 0 C0.88655624 2.1464753 0.75893655 4.29220592 0.625 6.4375 C0.55539062 7.63246094 0.48578125 8.82742188 0.4140625 10.05859375 C0.27742188 11.02925781 0.14078125 11.99992188 0 13 C-0.99 13.495 -0.99 13.495 -2 14 C-2 13.34 -2 12.68 -2 12 C-2.66 11.67 -3.32 11.34 -4 11 C-2.68 7.37 -1.36 3.74 0 0 Z M1 6 C1.33 7.32 1.66 8.64 2 10 C1.34 10 0.68 10 0 10 C0.33 8.68 0.66 7.36 1 6 Z " fill="#093D4B" transform="translate(482,610)"/>
<path d="M0 0 C0.33 0.66 0.66 1.32 1 2 C-0.73407158 7.20221474 -2.34133287 9.85225194 -7 13 C-6.65986985 7.55791766 -3.29703472 4.06331802 0 0 Z " fill="#99CEE6" transform="translate(188,260)"/>
<path d="M0 0 C0.33 0.66 0.66 1.32 1 2 C2.65 2 4.3 2 6 2 C6 2.66 6 3.32 6 4 C7.32 4.33 8.64 4.66 10 5 C6.11764181 6.49828872 3.56550712 5.43110582 -0.25 4.0625 C-1.32765625 3.68222656 -2.4053125 3.30195312 -3.515625 2.91015625 C-4.33546875 2.60980469 -5.1553125 2.30945313 -6 2 C-6 1.67 -6 1.34 -6 1 C-4.02 0.67 -2.04 0.34 0 0 Z " fill="#61A6CC" transform="translate(419,912)"/>
<path d="M0 0 C2 2 2 2 2 5 C0.46875 6.38671875 0.46875 6.38671875 -1.5 7.6875 C-2.47453125 8.34298828 -2.47453125 8.34298828 -3.46875 9.01171875 C-3.9740625 9.33785156 -4.479375 9.66398438 -5 10 C-4.49701212 5.59885603 -2.91227269 3.28804981 0 0 Z " fill="#98CEE8" transform="translate(206,236)"/>
<path d="M0 0 C0 0.33 0 0.66 0 1 C-2.10320063 1.50404808 -4.20759791 2.00310508 -6.3125 2.5 C-8.07013672 2.91765625 -8.07013672 2.91765625 -9.86328125 3.34375 C-13 4 -13 4 -16 4 C-16 3.34 -16 2.68 -16 2 C-14.27507022 1.46530198 -12.544802 0.94780825 -10.8125 0.4375 C-9.36810547 0.00244141 -9.36810547 0.00244141 -7.89453125 -0.44140625 C-4.87247412 -1.02461026 -2.94070045 -0.81178385 0 0 Z " fill="#6FADCD" transform="translate(761,875)"/>
<path d="M0 0 C0.33 0 0.66 0 1 0 C1 2.31 1 4.62 1 7 C-3.95 7 -8.9 7 -14 7 C-14 6.67 -14 6.34 -14 6 C-7.565 5.505 -7.565 5.505 -1 5 C-0.67 3.35 -0.34 1.7 0 0 Z " fill="#71C36F" transform="translate(475,624)"/>
<path d="M0 0 C1.65 0.33 3.3 0.66 5 1 C5 1.33 5 1.66 5 2 C4.236875 2.061875 3.47375 2.12375 2.6875 2.1875 C-0.23051809 2.76935262 -0.23051809 2.76935262 -1.8125 5.5625 C-2.204375 6.366875 -2.59625 7.17125 -3 8 C-5.64 7.67 -8.28 7.34 -11 7 C-11 6.67 -11 6.34 -11 6 C-9.741875 5.7525 -8.48375 5.505 -7.1875 5.25 C-4.16442273 4.51162006 -3.1940517 4.20617994 -1 1.875 C-0.67 1.25625 -0.34 0.6375 0 0 Z " fill="#71C36A" transform="translate(648,513)"/>
<path d="M0 0 C0.07622858 3.96388638 -0.0318352 7.1273408 -1 11 C-4.3 11 -7.6 11 -11 11 C-11 10.67 -11 10.34 -11 10 C-8.03 10 -5.06 10 -2 10 C-2.33 7.03 -2.66 4.06 -3 1 C-1 0 -1 0 0 0 Z " fill="#AFDDF1" transform="translate(124,538)"/>
<path d="M0 0 C0.33 0.66 0.66 1.32 1 2 C0.34 2.66 -0.32 3.32 -1 4 C-3.6015625 3.9765625 -3.6015625 3.9765625 -6.625 3.625 C-7.62789063 3.51414062 -8.63078125 3.40328125 -9.6640625 3.2890625 C-10.82035156 3.14597656 -10.82035156 3.14597656 -12 3 C-7.82744729 -0.58050131 -5.33135955 -0.26656798 0 0 Z " fill="#63B0DA" transform="translate(490,929)"/>
<path d="M0 0 C1.5 1.25 1.5 1.25 3 3 C3 4.32 3 5.64 3 7 C4.32 7.66 5.64 8.32 7 9 C6.67 10.32 6.34 11.64 6 13 C4.80008401 11.4050992 3.61538682 9.79873853 2.4375 8.1875 C1.44556641 6.84751953 1.44556641 6.84751953 0.43359375 5.48046875 C-0.03949219 4.66191406 -0.51257812 3.84335937 -1 3 C-0.67 2.01 -0.34 1.02 0 0 Z " fill="#74B0D1" transform="translate(14,682)"/>
<path d="M0 0 C4.29 0 8.58 0 13 0 C13.33 1.65 13.66 3.3 14 5 C13.01 4.67 12.02 4.34 11 4 C11 3.34 11 2.68 11 2 C7.37 1.67 3.74 1.34 0 1 C0 0.67 0 0.34 0 0 Z " fill="#4095C4" transform="translate(464,648)"/>
<path d="M0 0 C2.97 0 5.94 0 9 0 C8.01 0.66 7.02 1.32 6 2 C7.98 2.66 9.96 3.32 12 4 C8.69564916 5.12377697 6.9493138 4.89554742 3.75 3.5625 C3.04359375 3.27503906 2.3371875 2.98757813 1.609375 2.69140625 C1.07828125 2.46324219 0.5471875 2.23507812 0 2 C0 1.34 0 0.68 0 0 Z " fill="#073842" transform="translate(647,592)"/>
<path d="M0 0 C0.66 0 1.32 0 2 0 C2.66 1.98 3.32 3.96 4 6 C3.01 6.33 2.02 6.66 1 7 C0.34 7.66 -0.32 8.32 -1 9 C-1.09765625 2.84765625 -1.09765625 2.84765625 -1 1 C-0.67 0.67 -0.34 0.34 0 0 Z " fill="#10464F" transform="translate(875,538)"/>
<path d="M0 0 C5.19822672 1.36144033 8.09543873 3.46730171 12 7 C10.68 7.33 9.36 7.66 8 8 C7.67 7.01 7.34 6.02 7 5 C6.01 4.67 5.02 4.34 4 4 C3.01 3.67 2.02 3.34 1 3 C0.67 2.01 0.34 1.02 0 0 Z " fill="#455D6D" transform="translate(904,510)"/>
<path d="M0 0 C1 2 1 2 0.22265625 4.6015625 C-0.16019531 5.59929688 -0.54304687 6.59703125 -0.9375 7.625 C-1.50791016 9.12933594 -1.50791016 9.12933594 -2.08984375 10.6640625 C-2.39019531 11.43492187 -2.69054687 12.20578125 -3 13 C-3.33 13 -3.66 13 -4 13 C-4.2120464 8.54702569 -3.72718916 5.12606298 -2 1 C-1.34 0.67 -0.68 0.34 0 0 Z " fill="#7BB4D2" transform="translate(1008,672)"/>
<path d="M0 0 C-0.28875 0.53625 -0.5775 1.0725 -0.875 1.625 C-2.16711808 4.35280484 -3.08558592 7.12612718 -4 10 C-4.66 10 -5.32 10 -6 10 C-6.33663062 6.29706315 -6.47736015 4.60465619 -4.125 1.625 C-2 0 -2 0 0 0 Z " fill="#0A3D5A" transform="translate(732,794)"/>
<path d="M0 0 C3.73584906 1.47169811 3.73584906 1.47169811 5 4 C5.039992 5.99960012 5.04346799 8.00047242 5 10 C4.34 10 3.68 10 3 10 C2.731875 8.88625 2.46375 7.7725 2.1875 6.625 C1.34190981 2.78159049 1.34190981 2.78159049 -2 1 C-1.34 0.67 -0.68 0.34 0 0 Z " fill="#0D425F" transform="translate(319,713)"/>
<path d="M0 0 C0.89847656 0.17144531 1.79695313 0.34289062 2.72265625 0.51953125 C3.45355469 0.73996094 4.18445313 0.96039062 4.9375 1.1875 C5.2675 1.8475 5.5975 2.5075 5.9375 3.1875 C4.33254433 3.07307539 2.72851881 2.94555306 1.125 2.8125 C0.23167969 2.74289062 -0.66164063 2.67328125 -1.58203125 2.6015625 C-4.0625 2.1875 -4.0625 2.1875 -7.0625 0.1875 C-4.37114154 -1.15817923 -2.92373106 -0.58474621 0 0 Z " fill="#0C4160" transform="translate(506.0625,668.8125)"/>
<path d="M0 0 C0.66 0.33 1.32 0.66 2 1 C-1.33333333 4.33333333 -4.66666667 7.66666667 -8 11 C-8.66 10.67 -9.32 10.34 -10 10 C-6.7 6.7 -3.4 3.4 0 0 Z " fill="#67B768" transform="translate(121,590)"/>
<path d="M0 0 C4.76560621 1.40164889 7.95882443 4.15411474 11 8 C11 8.66 11 9.32 11 10 C7.28490737 8.76163579 5.71117136 6.77895064 3 4 C2.01 3.34 1.02 2.68 0 2 C0 1.34 0 0.68 0 0 Z " fill="#69BB67" transform="translate(898,527)"/>
<path d="M0 0 C0.66 0.33 1.32 0.66 2 1 C0.9375 3.5 0.9375 3.5 -1 6 C-4.6875 6.3125 -4.6875 6.3125 -8 6 C-5.38485683 3.87961365 -2.80362384 1.86908256 0 0 Z " fill="#9CCEE5" transform="translate(311,147)"/>
<path d="M0 0 C0.99 0.33 1.98 0.66 3 1 C2.01 2.485 2.01 2.485 1 4 C0.34 4 -0.32 4 -1 4 C-1.33 6.31 -1.66 8.62 -2 11 C-2.33 11 -2.66 11 -3 11 C-3.36923077 3.49230769 -3.36923077 3.49230769 -1.5 1 C-1.005 0.67 -0.51 0.34 0 0 Z " fill="#0B3E59" transform="translate(365,764)"/>
<path d="M0 0 C-1.43011973 0.86646667 -2.86940619 1.71781829 -4.3125 2.5625 C-5.51326172 3.27599609 -5.51326172 3.27599609 -6.73828125 4.00390625 C-9 5 -9 5 -12 4 C-11.34 4 -10.68 4 -10 4 C-10 3.01 -10 2.02 -10 1 C-3.375 -1.125 -3.375 -1.125 0 0 Z " fill="#073741" transform="translate(208,536)"/>
<path d="M0 0 C0.66 0.33 1.32 0.66 2 1 C0.35 4.3 -1.3 7.6 -3 11 C-4.10359366 6.58562534 -3.72502467 5.08558475 -2 1 C-1.34 0.67 -0.68 0.34 0 0 Z " fill="#10414A" transform="translate(501,608)"/>
<path d="M0 0 C0.66 0 1.32 0 2 0 C1.67 0.99 1.34 1.98 1 3 C0.34 3 -0.32 3 -1 3 C-1.33 3.99 -1.66 4.98 -2 6 C-3.65 6.33 -5.3 6.66 -7 7 C-4.66666667 4.66666667 -2.33333333 2.33333333 0 0 Z " fill="#70C464" transform="translate(140,575)"/>
<path d="M0 0 C0.66 0 1.32 0 2 0 C0.68775452 3.93673644 -0.91910327 6.22719294 -4 9 C-3.67 7.35 -3.34 5.7 -3 4 C-2.01 3.67 -1.02 3.34 0 3 C0 2.01 0 1.02 0 0 Z " fill="#75B0D0" transform="translate(915,797)"/>
<path d="M0 0 C0.33 0.66 0.66 1.32 1 2 C1.66 2 2.32 2 3 2 C3.33 3.65 3.66 5.3 4 7 C4.66 7 5.32 7 6 7 C5.67 7.99 5.34 8.98 5 10 C0 4.5 0 4.5 0 0 Z " fill="#6FACCD" transform="translate(135,790)"/>
<path d="M0 0 C2.29633824 3.44450737 2.54016485 5.93812283 3 10 C1 9 1 9 -0.1875 6.6875 C-1.03624754 3.88010429 -0.99928333 2.698065 0 0 Z " fill="#73AFD1" transform="translate(10,672)"/>
<path d="M0 0 C3.5218253 1.95656961 6.34442785 3.95100975 9 7 C9 7.66 9 8.32 9 9 C7 9 7 9 4.5 6.75 C2.43045772 4.4735035 1.14250707 2.80433554 0 0 Z " fill="#6AB968" transform="translate(298,582)"/>
<path d="M0 0 C-0.99 1.485 -0.99 1.485 -2 3 C-4.625 3.1875 -4.625 3.1875 -7 3 C-6.67 2.01 -6.34 1.02 -6 0 C-3.50907189 -1.24546405 -2.58919267 -0.7767578 0 0 Z " fill="#55A0CA" transform="translate(62,564)"/>
<path d="M0 0 C1.98 0 3.96 0 6 0 C2.80009492 2.74277578 -0.00499382 4.6302836 -4 6 C-4 5.34 -4 4.68 -4 4 C-2.68 3.67 -1.36 3.34 0 3 C0 2.01 0 1.02 0 0 Z " fill="#0A3844" transform="translate(179,547)"/>
<path d="M0 0 C-0.33 0.66 -0.66 1.32 -1 2 C-4.63 1.67 -8.26 1.34 -12 1 C-7.01222852 -1.49388574 -5.33016752 -0.88836125 0 0 Z " fill="#0F4345" transform="translate(799,530)"/>
<path d="M0 0 C2.31 0 4.62 0 7 0 C3.8745041 2.64465038 0.91211733 3.84414715 -3 5 C-3 4.34 -3 3.68 -3 3 C-2.01 3 -1.02 3 0 3 C0 2.01 0 1.02 0 0 Z " fill="#053343" transform="translate(506,467)"/>
<path d="M0 0 C0.66 0.33 1.32 0.66 2 1 C-1.85623679 4.97674419 -1.85623679 4.97674419 -5.11328125 5.04296875 C-7.08863015 4.7798228 -9.04718291 4.39718314 -11 4 C-11 3.67 -11 3.34 -11 3 C-10.37351562 2.86722656 -9.74703125 2.73445313 -9.1015625 2.59765625 C-8.28429687 2.42105469 -7.46703125 2.24445313 -6.625 2.0625 C-5.81289063 1.88847656 -5.00078125 1.71445312 -4.1640625 1.53515625 C-1.970537 1.07669307 -1.970537 1.07669307 0 0 Z " fill="#052842" transform="translate(364,464)"/>
<path d="M0 0 C0.33 0 0.66 0 1 0 C1.4726477 8.19256018 1.4726477 8.19256018 -0.5 11.5625 C-0.995 12.036875 -1.49 12.51125 -2 13 C-2 11.02 -2 9.04 -2 7 C-1.34 7 -0.68 7 0 7 C0 4.69 0 2.38 0 0 Z " fill="#165275" transform="translate(583,647)"/>
<path d="M0 0 C0 0.33 0 0.66 0 1 C-1.65 1 -3.3 1 -5 1 C-5 1.66 -5 2.32 -5 3 C-6.98 3 -8.96 3 -11 3 C-11 2.34 -11 1.68 -11 1 C-7.32589215 -0.17571451 -3.83070817 -0.07366746 0 0 Z " fill="#3B97C7" transform="translate(666,648)"/>
<path d="M0 0 C2.12508244 3.18762365 2.5020163 5.26512223 3 9 C2.01 9.495 2.01 9.495 1 10 C-0.60725635 6.78548731 -0.05748185 3.56387464 0 0 Z " fill="#6DADD1" transform="translate(1007,606)"/>
<path d="M0 0 C0.33 1.32 0.66 2.64 1 4 C-1.4375 6.75 -1.4375 6.75 -4 9 C-4.66 8.67 -5.32 8.34 -6 8 C-4.02 5.36 -2.04 2.72 0 0 Z " fill="#3E92C1" transform="translate(894,604)"/>
<path d="M0 0 C10.55808656 -0.3690205 10.55808656 -0.3690205 15 2 C15 2.33 15 2.66 15 3 C13.00045254 3.04254356 10.99958364 3.04080783 9 3 C8.67 2.67 8.34 2.34 8 2 C6.65252916 1.76924918 5.29622435 1.58846937 3.9375 1.4375 C2.638125 1.293125 1.33875 1.14875 0 1 C0 0.67 0 0.34 0 0 Z " fill="#5DB055" transform="translate(731,600)"/>
<path d="M0 0 C1 2 1 2 0.375 4.0625 C-1 6 -1 6 -3.625 6.75 C-4.800625 6.87375 -4.800625 6.87375 -6 7 C-4.02 4.69 -2.04 2.38 0 0 Z " fill="#6AABCF" transform="translate(35,579)"/>
<path d="M0 0 C3.375 -0.125 3.375 -0.125 7 0 C7.66 0.66 8.32 1.32 9 2 C6.69 2.33 4.38 2.66 2 3 C2 2.34 2 1.68 2 1 C1.34 0.67 0.68 0.34 0 0 Z " fill="#3995C9" transform="translate(103,550)"/>
<path d="M0 0 C4.2742558 1.5830577 6.26531794 4.50568404 9 8 C7 7 5 6 3 5 C3 4.34 3 3.68 3 3 C2.01 2.67 1.02 2.34 0 2 C0 1.34 0 0.68 0 0 Z " fill="#6BBB66" transform="translate(699,497)"/>
<path d="M0 0 C3.25543229 0.34879632 4.01873107 1.02133261 6.25 3.5625 C6.8275 4.366875 7.405 5.17125 8 6 C5 6 5 6 3.61328125 4.6875 C2.40885417 3.125 1.20442708 1.5625 0 0 Z " fill="#103B56" transform="translate(704,479)"/>
<path d="M0 0 C3.08089673 2.77280706 4.68775452 5.06326356 6 9 C3.525 8.01 3.525 8.01 1 7 C0.67 4.69 0.34 2.38 0 0 Z " fill="#9ECFE5" transform="translate(836,265)"/>
<path d="M0 0 C2.50357861 0.8345262 4.66785852 1.79371992 7 3 C7 3.66 7 4.32 7 5 C1.25 4.125 1.25 4.125 -1 3 C-0.67 2.01 -0.34 1.02 0 0 Z " fill="#66ABD0" transform="translate(404,907)"/>
<path d="M0 0 C2.64 0.33 5.28 0.66 8 1 C8 1.66 8 2.32 8 3 C5.03 2.67 2.06 2.34 -1 2 C-0.67 1.34 -0.34 0.68 0 0 Z " fill="#6BA9CB" transform="translate(241,857)"/>
<path d="M0 0 C0.66 0.33 1.32 0.66 2 1 C0.29374499 3.78388975 -0.47626739 4.85384206 -3.6875 5.75 C-4.8321875 5.87375 -4.8321875 5.87375 -6 6 C-4 4 -2 2 0 0 Z " fill="#76B1D0" transform="translate(49,568)"/>
<path d="M0 0 C3.36720387 1.39332574 4.9859524 2.9789286 7 6 C4 6 4 6 1.8125 4.125 C0 2 0 2 0 0 Z " fill="#10404B" transform="translate(692,488)"/>
<path d="M0 0 C0.66 0.33 1.32 0.66 2 1 C2 1.66 2 2.32 2 3 C-2.43076923 5.09230769 -2.43076923 5.09230769 -5.3125 4.625 C-5.869375 4.41875 -6.42625 4.2125 -7 4 C-1.7265625 0.77734375 -1.7265625 0.77734375 0 0 Z " fill="#9ECFE4" transform="translate(335,134)"/>
<path d="M0 0 C0.33 0 0.66 0 1 0 C1.36923077 6.52307692 1.36923077 6.52307692 -0.5 8.9375 C-0.995 9.288125 -1.49 9.63875 -2 10 C-2 6.38970831 -1.03907418 3.44193324 0 0 Z " fill="#10425F" transform="translate(833,798)"/>
<path d="M0 0 C-1.36983503 3.16115776 -1.9890638 3.9927092 -5 6 C-5 4.35 -5 2.7 -5 1 C-2 0 -2 0 0 0 Z " fill="#5DA3C9" transform="translate(986,711)"/>
<path d="M0 0 C1.5625 1.0625 1.5625 1.0625 3 3 C2.6875 6.6875 2.6875 6.6875 2 10 C-0.4294516 6.3558226 -0.16179575 4.28758728 0 0 Z " fill="#8BBFDB" transform="translate(5,657)"/>
<path d="" fill="#FFEBD0" transform="translate(0,0)"/>
</svg>
